<svg xmlns="http://www.w3.org/2000/svg" version="1.1" width="850" height="600" viewBox="0 0 850 600" style="font-family: Calibri, Candara, Segoe, 'Segoe UI', Optima, Arial, sans-serif; font-feature-settings: &quot;liga&quot;, &quot;kern&quot;, &quot;calt&quot;, &quot;lnum&quot;; text-rendering: geometricprecision; -webkit-font-smoothing: antialiased; font-size: 18px; background-color: #F5F4F0;"><defs><style>@import url(https://ourworldindata.org/fonts.css)</style></defs><defs><pattern id="noDataPattern" patternUnits="userSpaceOnUse" width="4" height="4" patternTransform="rotate(-45 2 2)"><path d="M -1,2 l 6,0" stroke="#ccc" stroke-width="0.7"></path></pattern></defs><g id="header" class="HeaderView"><g id="logo" transform="translate(769, 16) scale(1)"><svg classname="owidLogo" xmlns="http://www.w3.org/2000/svg" width="65" height="36" viewBox="0 0 65 36" fill="none"><path fill="#002147" d="M0 0h64.8v36H0z"></path><path fill="#CE261E" d="M0 33.3h64.8V36H0z"></path><path fill="#fff" d="M13.796 10.575c0 .636-.106 1.226-.318 1.77a4.193 4.193 0 0 1-.894 1.404 4.084 4.084 0 0 1-1.386.93c-.54.22-1.138.33-1.794.33-.656 0-1.256-.11-1.8-.33a4.149 4.149 0 0 1-1.392-.93 4.193 4.193 0 0 1-.894-1.404A4.833 4.833 0 0 1 5 10.575c0-.636.106-1.224.318-1.764a4.18 4.18 0 0 1 .894-1.41 4.076 4.076 0 0 1 1.392-.924 4.684 4.684 0 0 1 1.8-.336c.656 0 1.254.112 1.794.336.54.224 1.002.534 1.386.93.384.392.682.86.894 1.404.212.54.318 1.128.318 1.764Zm-1.656 0c0-.476-.064-.902-.192-1.278a2.671 2.671 0 0 0-.54-.966 2.332 2.332 0 0 0-.864-.606 2.94 2.94 0 0 0-1.14-.21c-.424 0-.806.07-1.146.21-.34.14-.63.342-.87.606a2.742 2.742 0 0 0-.546.966 3.955 3.955 0 0 0-.192 1.278c0 .476.064.904.192 1.284.128.376.31.696.546.96.24.26.53.46.87.6.34.14.722.21 1.146.21.424 0 .804-.07 1.14-.21.34-.14.628-.34.864-.6.236-.264.416-.584.54-.96a4.01 4.01 0 0 0 .192-1.284ZM16.104 8.757v3.912c0 .376.086.668.258.876.176.204.438.306.786.306.256 0 .496-.056.72-.168a2.58 2.58 0 0 0 .636-.474V8.757h1.482v6.156h-.906c-.192 0-.318-.09-.378-.27l-.102-.492a4.65 4.65 0 0 1-.396.354 2.577 2.577 0 0 1-.438.27 2.35 2.35 0 0 1-.498.168 2.345 2.345 0 0 1-.57.066c-.336 0-.634-.056-.894-.168a1.821 1.821 0 0 1-.648-.486 2.157 2.157 0 0 1-.402-.738 3.233 3.233 0 0 1-.132-.948V8.757h1.482ZM21.328 14.913V8.757h.87c.152 0 .258.028.318.084.06.056.1.152.12.288l.09.744c.22-.38.478-.68.774-.9.296-.22.628-.33.996-.33.304 0 .556.07.756.21l-.192 1.11c-.012.072-.038.124-.078.156a.278.278 0 0 1-.162.042 1.01 1.01 0 0 1-.246-.042 1.646 1.646 0 0 0-.414-.042c-.308 0-.572.086-.792.258-.22.168-.406.416-.558.744v3.834h-1.482ZM27.347 6.237h1.356a.57.57 0 0 1 .348.102c.096.064.16.152.192.264l1.476 5.19c.036.128.068.268.096.42.032.148.062.306.09.474a5.968 5.968 0 0 1 .228-.894l1.704-5.19a.575.575 0 0 1 .186-.252.543.543 0 0 1 .348-.114h.474a.57.57 0 0 1 .348.102.497.497 0 0 1 .192.264l1.692 5.19c.088.256.164.54.228.852.028-.156.056-.306.084-.45.032-.144.064-.278.096-.402l1.476-5.19c.028-.1.09-.186.186-.258a.563.563 0 0 1 .348-.108h1.266l-2.694 8.676h-1.458l-1.896-5.928-.078-.246a9.504 9.504 0 0 1-.072-.282c-.024.1-.05.194-.078.282-.024.088-.048.17-.072.246l-1.914 5.928H30.04l-2.694-8.676ZM42.771 8.661c.46 0 .876.074 1.248.222.376.148.696.358.96.63s.468.604.612.996c.144.392.216.83.216 1.314 0 .488-.072.928-.216 1.32a2.85 2.85 0 0 1-.612 1.002 2.653 2.653 0 0 1-.96.636 3.35 3.35 0 0 1-1.248.222c-.46 0-.878-.074-1.254-.222a2.712 2.712 0 0 1-.966-.636 2.922 2.922 0 0 1-.618-1.002 3.807 3.807 0 0 1-.216-1.32c0-.484.072-.922.216-1.314.148-.392.354-.724.618-.996.268-.272.59-.482.966-.63a3.397 3.397 0 0 1 1.254-.222Zm0 5.202c.512 0 .89-.172 1.134-.516.248-.344.372-.848.372-1.512s-.124-1.17-.372-1.518c-.244-.348-.622-.522-1.134-.522-.52 0-.904.176-1.152.528-.248.348-.372.852-.372 1.512s.124 1.164.372 1.512c.248.344.632.516 1.152.516ZM46.723 14.913V8.757h.87c.152 0 .258.028.318.084.06.056.1.152.12.288l.09.744c.22-.38.478-.68.774-.9.296-.22.628-.33.996-.33.304 0 .556.07.756.21l-.192 1.11c-.012.072-.038.124-.078.156a.278.278 0 0 1-.162.042 1.01 1.01 0 0 1-.246-.042 1.646 1.646 0 0 0-.414-.042c-.308 0-.572.086-.792.258-.22.168-.406.416-.558.744v3.834h-1.482ZM52.96 5.997v8.916h-1.482V5.997h1.482ZM58.732 14.913c-.192 0-.318-.09-.378-.27l-.12-.594a3.68 3.68 0 0 1-.402.39c-.14.116-.292.216-.456.3-.16.084-.334.148-.522.192a2.372 2.372 0 0 1-.6.072c-.336 0-.644-.07-.924-.21a2.098 2.098 0 0 1-.726-.606 3.033 3.033 0 0 1-.468-.99 5.072 5.072 0 0 1-.162-1.344c0-.456.062-.88.186-1.272s.302-.732.534-1.02c.232-.288.51-.512.834-.672a2.384 2.384 0 0 1 1.092-.246 2.103 2.103 0 0 1 1.536.606V5.997h1.482v8.916h-.906Zm-1.974-1.086c.308 0 .57-.064.786-.192.216-.128.42-.31.612-.546v-2.76a1.452 1.452 0 0 0-.552-.432 1.597 1.597 0 0 0-.636-.126c-.224 0-.428.042-.612.126a1.21 1.21 0 0 0-.462.384c-.124.168-.22.384-.288.648-.068.26-.102.568-.102.924 0 .36.028.666.084.918.06.248.144.452.252.612.108.156.24.27.396.342.156.068.33.102.522.102ZM16.331 20.757v6.156H14.85v-6.156h1.481Zm.223-1.794a.844.844 0 0 1-.078.36.963.963 0 0 1-.21.294.995.995 0 0 1-.3.204.963.963 0 0 1-.372.072.948.948 0 0 1-.367-.072 1.018 1.018 0 0 1-.498-.498.963.963 0 0 1 0-.732.995.995 0 0 1 .205-.3.929.929 0 0 1 .293-.198.899.899 0 0 1 .738 0 .912.912 0 0 1 .3.198.943.943 0 0 1 .288.672ZM17.771 26.913v-6.156h.906c.192 0 .318.09.378.27l.102.486a2.934 2.934 0 0 1 .828-.618c.156-.076.322-.134.498-.174.176-.04.368-.06.576-.06.336 0 .634.058.894.174.26.112.476.272.648.48.176.204.308.45.396.738.092.284.138.598.138.942v3.918h-1.482v-3.918c0-.376-.088-.666-.264-.87-.172-.208-.432-.312-.78-.312-.256 0-.496.058-.72.174a2.58 2.58 0 0 0-.636.474v4.452h-1.482ZM34.22 22.575c0 .636-.106 1.22-.318 1.752-.212.532-.51.99-.894 1.374a4 4 0 0 1-1.386.894 4.87 4.87 0 0 1-1.794.318h-3.312v-8.676h3.312a4.79 4.79 0 0 1 1.794.324 4 4 0 0 1 1.386.894c.384.38.682.836.894 1.368.212.532.318 1.116.318 1.752Zm-1.65 0c0-.476-.064-.902-.192-1.278a2.68 2.68 0 0 0-.546-.96 2.332 2.332 0 0 0-.864-.606 2.94 2.94 0 0 0-1.14-.21h-1.686v6.108h1.686c.424 0 .804-.07 1.14-.21.34-.14.628-.34.864-.6a2.75 2.75 0 0 0 .546-.96 4.01 4.01 0 0 0 .192-1.284ZM39.98 26.913h-.665c-.14 0-.25-.02-.33-.06-.08-.044-.14-.13-.18-.258l-.132-.438c-.156.14-.31.264-.462.372a2.804 2.804 0 0 1-.462.264c-.16.072-.33.126-.51.162-.18.036-.38.054-.6.054-.26 0-.5-.034-.72-.102a1.618 1.618 0 0 1-.57-.318 1.448 1.448 0 0 1-.366-.522 1.852 1.852 0 0 1-.132-.726c0-.232.06-.46.18-.684.124-.228.328-.432.612-.612.284-.184.662-.336 1.134-.456.472-.12 1.058-.188 1.758-.204v-.36c0-.412-.088-.716-.264-.912-.172-.2-.424-.3-.756-.3a1.837 1.837 0 0 0-1.02.276c-.116.068-.224.13-.324.186a.664.664 0 0 1-.33.084.429.429 0 0 1-.258-.078.614.614 0 0 1-.174-.192l-.27-.474c.708-.648 1.562-.972 2.562-.972.36 0 .68.06.96.18.284.116.524.28.72.492.196.208.344.458.444.75.104.292.156.612.156.96v3.888Zm-2.88-.924c.153 0 .293-.014.42-.042.129-.028.249-.07.36-.126.117-.056.227-.124.33-.204.109-.084.217-.182.325-.294v-1.038c-.432.02-.794.058-1.086.114-.288.052-.52.12-.696.204a.923.923 0 0 0-.378.294.664.664 0 0 0-.108.366c0 .26.076.446.228.558.156.112.358.168.606.168ZM43.22 27.01c-.532 0-.942-.15-1.23-.45-.288-.305-.432-.723-.432-1.255v-3.438h-.624a.31.31 0 0 1-.21-.078c-.056-.052-.084-.13-.084-.234v-.588l.99-.162.312-1.68a.302.302 0 0 1 .108-.186.365.365 0 0 1 .222-.066h.768v1.938h1.62v1.056h-1.62v3.336c0 .192.048.342.144.45a.488.488 0 0 0 .384.162c.092 0 .168-.01.228-.03.064-.024.118-.048.162-.072.048-.024.09-.046.126-.066a.194.194 0 0 1 .108-.036.16.16 0 0 1 .108.036c.028.02.058.052.09.096l.444.72c-.216.18-.464.316-.744.408a2.77 2.77 0 0 1-.87.138ZM50.423 26.913h-.666c-.14 0-.25-.02-.33-.06-.08-.044-.14-.13-.18-.258l-.132-.438c-.156.14-.31.264-.462.372a2.804 2.804 0 0 1-.462.264c-.16.072-.33.126-.51.162-.18.036-.38.054-.6.054-.26 0-.5-.034-.72-.102a1.618 1.618 0 0 1-.57-.318 1.448 1.448 0 0 1-.366-.522 1.852 1.852 0 0 1-.132-.726c0-.232.06-.46.18-.684.124-.228.328-.432.612-.612.284-.184.662-.336 1.134-.456.472-.12 1.058-.188 1.758-.204v-.36c0-.412-.088-.716-.264-.912-.172-.2-.424-.3-.756-.3a1.837 1.837 0 0 0-1.02.276c-.116.068-.224.13-.324.186a.664.664 0 0 1-.33.084.429.429 0 0 1-.258-.078.614.614 0 0 1-.174-.192l-.27-.474c.708-.648 1.562-.972 2.562-.972.36 0 .68.06.96.18.284.116.524.28.72.492.196.208.344.458.444.75.104.292.156.612.156.96v3.888Zm-2.88-.924c.152 0 .292-.014.42-.042.128-.028.248-.07.36-.126.116-.056.226-.124.33-.204.108-.084.216-.182.324-.294v-1.038c-.432.02-.794.058-1.086.114-.288.052-.52.12-.696.204a.923.923 0 0 0-.378.294.664.664 0 0 0-.108.366c0 .26.076.446.228.558.156.112.358.168.606.168Z"></path></svg></g><a id="title" href="https://ourworldindata.org/grapher/time-spent-with-relationships-by-age-us?overlay=download-vis&amp;utm_source=chatgpt.com" style="font-family: Calibri, Candara, Segoe, 'Segoe UI', Optima, Arial, sans-serif;"><text font-size="25.00" font-weight="600" x="16.0" y="40.3" fill="#3D3A37"><tspan x="16" y="40.25">Who Americans spend their time with, by age, All people</tspan></text></a><g id="subtitle" class="markdown-text-wrap"><text x="16.0" y="66.5" fill="#9A948C" style="font-size: 15px; line-height: 1.2;"><tspan x="16" y="66.5">Measured in hours per day, based on averages from surveys in the United States between 2010 and 2023.</tspan></text></g></g><g id="chart-area" style="pointer-events: none;"><g id="horizontal-axis" class="HorizontalAxis"><g id="horizontal-axis-label" class="markdown-text-wrap"><text x="377.6" y="497.4" fill="#9A948C" text-anchor="middle" style="font-size: 13px; font-weight: 700; line-height: 1;"><tspan x="377.64" y="497.4">Age</tspan></text></g><g id="tick-marks"><line id="15" x1="39.2" y1="457.6" x2="39.2" y2="463.1" stroke="#d1d1c2" stroke-width="1"></line><line id="80" x1="716.1" y1="457.6" x2="716.1" y2="463.1" stroke="#d1d1c2" stroke-width="1"></line><line id="20" x1="91.3" y1="457.6" x2="91.3" y2="463.1" stroke="#d1d1c2" stroke-width="1"></line><line id="30" x1="195.4" y1="457.6" x2="195.4" y2="463.1" stroke="#d1d1c2" stroke-width="1"></line><line id="40" x1="299.5" y1="457.6" x2="299.5" y2="463.1" stroke="#d1d1c2" stroke-width="1"></line><line id="50" x1="403.7" y1="457.6" x2="403.7" y2="463.1" stroke="#d1d1c2" stroke-width="1"></line><line id="60" x1="507.8" y1="457.6" x2="507.8" y2="463.1" stroke="#d1d1c2" stroke-width="1"></line><line id="70" x1="611.9" y1="457.6" x2="611.9" y2="463.1" stroke="#d1d1c2" stroke-width="1"></line></g><g id="tick-labels"><text x="39.2" y="476.1" fill="#9A948C" text-anchor="start" font-size="13">15</text><text x="716.08" y="476.1" fill="#9A948C" text-anchor="end" font-size="13">80</text><text x="91.3" y="476.1" fill="#9A948C" text-anchor="middle" font-size="13">20</text><text x="195.4" y="476.1" fill="#9A948C" text-anchor="middle" font-size="13">30</text><text x="299.5" y="476.1" fill="#9A948C" text-anchor="middle" font-size="13">40</text><text x="403.7" y="476.1" fill="#9A948C" text-anchor="middle" font-size="13">50</text><text x="507.8" y="476.1" fill="#9A948C" text-anchor="middle" font-size="13">60</text><text x="611.9" y="476.1" fill="#9A948C" text-anchor="middle" font-size="13">70</text></g></g><g id="vertical-axis" class="VerticalAxis"><g id="tick-labels"><text x="34.20" y="458.1" dy=".32em" text-anchor="end" fill="#9A948C" font-size="13">0 h</text><text x="34.20" y="412.7" dy=".32em" text-anchor="end" fill="#9A948C" font-size="13">1 h</text><text x="34.20" y="367.3" dy=".32em" text-anchor="end" fill="#9A948C" font-size="13">2 h</text><text x="34.20" y="321.9" dy=".32em" text-anchor="end" fill="#9A948C" font-size="13">3 h</text><text x="34.20" y="276.5" dy=".32em" text-anchor="end" fill="#9A948C" font-size="13">4 h</text><text x="34.20" y="231.1" dy=".32em" text-anchor="end" fill="#9A948C" font-size="13">5 h</text><text x="34.20" y="185.7" dy=".32em" text-anchor="end" fill="#9A948C" font-size="13">6 h</text><text x="34.20" y="140.3" dy=".32em" text-anchor="end" fill="#9A948C" font-size="13">7 h</text><text x="34.20" y="94.9" dy=".32em" text-anchor="end" fill="#9A948C" font-size="13">8 h</text></g></g><g id="horizontal-grid-lines" class="AxisGridLines horizontalLines"><line id="0-h" x1="39.20" y1="458.1" x2="716.08" y2="458.1" stroke="#d1d1c2"></line><line id="1-h" x1="39.20" y1="412.7" x2="716.08" y2="412.7" stroke="#d1d1c2" stroke-dasharray="4,4"></line><line id="2-h" x1="39.20" y1="367.3" x2="716.08" y2="367.3" stroke="#d1d1c2" stroke-dasharray="4,4"></line><line id="3-h" x1="39.20" y1="321.9" x2="716.08" y2="321.9" stroke="#d1d1c2" stroke-dasharray="4,4"></line><line id="4-h" x1="39.20" y1="276.5" x2="716.08" y2="276.5" stroke="#d1d1c2" stroke-dasharray="4,4"></line><line id="5-h" x1="39.20" y1="231.1" x2="716.08" y2="231.1" stroke="#d1d1c2" stroke-dasharray="4,4"></line><line id="6-h" x1="39.20" y1="185.7" x2="716.08" y2="185.7" stroke="#d1d1c2" stroke-dasharray="4,4"></line><line id="7-h" x1="39.20" y1="140.3" x2="716.08" y2="140.3" stroke="#d1d1c2" stroke-dasharray="4,4"></line><line id="8-h" x1="39.20" y1="94.9" x2="716.08" y2="94.9" stroke="#d1d1c2" stroke-dasharray="4,4"></line></g><g id="line-labels" class="LineLabels"><g id="connectors"><path id="Alone" d="M720.08,96.7 H728.58 V96.7 H737.08" stroke="#d1d1c2" stroke-width="0.5" fill="none"></path><path id="With-partner" d="M720.08,283 H728.58 V283 H737.08" stroke="#d1d1c2" stroke-width="0.5" fill="none"></path><path id="With-family" d="M720.08,413.6 H725.7466666666667 V404 H737.08" stroke="#d1d1c2" stroke-width="0.5" fill="none"></path><path id="With-children" d="M720.08,425.1 H731.4133333333333 V422.3 H737.08" stroke="#d1d1c2" stroke-width="0.5" fill="none"></path><path id="With-friends" d="M720.08,433.9 H731.4133333333333 V440.6 H737.08" stroke="#d1d1c2" stroke-width="0.5" fill="none"></path><path id="With-coworkers" d="M720.08,453.2 H725.7466666666667 V458.90000000000003 H737.08" stroke="#d1d1c2" stroke-width="0.5" fill="none"></path></g><g id="text-annotations"></g><g id="text-labels"><text id="label__Alone" font-size="13.00" font-weight="400" x="741.1" y="101.5" fill="#8c867b" opacity="1" text-anchor="start"><tspan x="741.08" y="101.50999999999999">Alone</tspan></text><text id="label__With-partner" font-size="13.00" font-weight="400" x="741.1" y="287.8" fill="#9088a0" opacity="1" text-anchor="start"><tspan x="741.08" y="287.81">With partner</tspan></text><text id="label__With-family" font-size="13.00" font-weight="400" x="741.1" y="408.8" fill="#8c9c88" opacity="1" text-anchor="start"><tspan x="741.08" y="408.81">With family</tspan></text><text id="label__With-children" font-size="13.00" font-weight="400" x="741.1" y="427.1" fill="#b8a088" opacity="1" text-anchor="start"><tspan x="741.08" y="427.11">With children</tspan></text><text id="label__With-friends" font-size="13.00" font-weight="400" x="741.1" y="445.4" fill="#b89a9a" opacity="1" text-anchor="start"><tspan x="741.08" y="445.41">With friends</tspan></text><text id="label__With-coworkers" font-size="13.00" font-weight="400" x="741.1" y="463.7" fill="#c8a8a0" opacity="1" text-anchor="start"><tspan x="741.08" y="463.71000000000004">With coworkers</tspan></text></g></g><g id="lines"><path fill="none" stroke-linecap="butt" stroke-linejoin="round" stroke="#ffffff" id="outline__With-coworkers" stroke-width="2.5" d="M 39.2 450.6 C 43.4 446.4, 45.4 446.4, 49.6 440.0 C 53.8 433.6, 55.8 434.9, 60.0 423.9 C 64.2 412.9, 66.2 409.6, 70.4 396.3 C 74.6 383.0, 76.7 367.2, 80.9 363.0 C 85.1 358.8, 87.1 354.3, 91.3 352.4 C 95.5 350.5, 97.5 352.9, 101.7 347.7 C 105.9 342.5, 107.9 343.0, 112.1 334.8 C 116.3 326.6, 118.3 316.0, 122.5 314.4 C 126.7 312.8, 128.7 307.9, 132.9 310.3 C 137.1 312.7, 139.1 317.8, 143.3 316.2 C 147.5 314.6, 149.5 312.8, 153.7 312.2 C 157.9 311.6, 160.0 310.6, 164.2 310.6 C 168.4 310.6, 170.4 308.7, 174.6 310.7 C 178.8 312.7, 180.8 319.7, 185.0 315.6 C 189.2 311.5, 191.2 298.1, 195.4 305.4 C 199.6 312.7, 201.6 327.5, 205.8 323.7 C 210.0 319.9, 212.0 308.8, 216.2 314.3 C 220.4 319.8, 222.4 328.5, 226.6 328.0 C 230.8 327.5, 232.9 327.8, 237.1 326.8 C 241.3 325.8, 243.3 321.6, 247.5 324.2 C 251.7 326.8, 253.7 333.1, 257.9 330.7 C 262.1 328.3, 264.1 326.3, 268.3 324.8 C 272.5 323.3, 274.5 316.0, 278.7 321.1 C 282.9 326.2, 284.9 337.1, 289.1 333.8 C 293.3 330.5, 295.3 323.5, 299.5 325.5 C 303.7 327.5, 305.8 333.6, 310.0 330.6 C 314.2 327.6, 316.2 317.3, 320.4 323.0 C 324.6 328.7, 326.6 338.8, 330.8 337.2 C 335.0 335.6, 337.0 335.7, 341.2 333.1 C 345.4 330.5, 347.4 322.6, 351.6 326.6 C 355.8 330.6, 357.8 337.5, 362.0 336.7 C 366.2 335.9, 368.2 335.3, 372.4 334.7 C 376.6 334.1, 378.6 336.2, 382.8 333.1 C 387.0 330.0, 389.1 319.8, 393.3 325.3 C 397.5 330.8, 399.5 340.6, 403.7 339.1 C 407.9 337.6, 409.9 336.2, 414.1 335.3 C 418.3 334.4, 420.3 330.7, 424.5 333.0 C 428.7 335.3, 430.7 342.8, 434.9 338.8 C 439.1 334.8, 441.1 321.3, 445.3 328.9 C 449.5 336.5, 451.5 348.4, 455.7 347.8 C 459.9 347.2, 462.0 347.4, 466.2 346.3 C 470.4 345.2, 472.4 338.6, 476.6 343.6 C 480.8 348.6, 482.8 355.7, 487.0 356.0 C 491.2 356.3, 493.2 353.1, 497.4 356.7 C 501.6 360.3, 503.6 366.7, 507.8 365.8 C 512.0 364.9, 514.0 352.7, 518.2 363.5 C 522.4 374.3, 524.4 387.9, 528.6 390.4 C 532.8 392.9, 534.8 396.7, 539.0 396.7 C 543.2 396.7, 545.3 390.3, 549.5 396.8 C 553.7 403.3, 555.7 409.9, 559.9 413.1 C 564.1 416.3, 566.1 417.9, 570.3 421.0 C 574.5 424.1, 576.5 428.5, 580.7 428.7 C 584.9 428.9, 586.9 425.8, 591.1 429.2 C 595.3 432.6, 597.3 438.2, 601.5 437.8 C 605.7 437.4, 607.7 434.1, 611.9 436.7 C 616.1 439.3, 618.2 442.7, 622.4 443.1 C 626.6 443.5, 628.6 443.9, 632.8 444.0 C 637.0 444.1, 639.0 442.7, 643.2 444.2 C 647.4 445.7, 649.4 448.7, 653.6 447.9 C 657.8 447.1, 659.8 445.5, 664.0 445.9 C 668.2 446.3, 670.2 445.7, 674.4 447.0 C 678.6 448.3, 680.6 448.0, 684.8 450.2 C 689.0 452.4, 691.1 456.4, 695.3 455.6 C 699.5 454.8, 701.5 453.6, 705.7 453.5 L 716.1 453.2 "></path><path fill="none" stroke-linecap="butt" stroke-linejoin="round" stroke="#c8a8a0" id="line__With-coworkers" stroke-width="1.5" stroke-opacity="1" d="M 39.2 450.6 C 43.4 446.4, 45.4 446.4, 49.6 440.0 C 53.8 433.6, 55.8 434.9, 60.0 423.9 C 64.2 412.9, 66.2 409.6, 70.4 396.3 C 74.6 383.0, 76.7 367.2, 80.9 363.0 C 85.1 358.8, 87.1 354.3, 91.3 352.4 C 95.5 350.5, 97.5 352.9, 101.7 347.7 C 105.9 342.5, 107.9 343.0, 112.1 334.8 C 116.3 326.6, 118.3 316.0, 122.5 314.4 C 126.7 312.8, 128.7 307.9, 132.9 310.3 C 137.1 312.7, 139.1 317.8, 143.3 316.2 C 147.5 314.6, 149.5 312.8, 153.7 312.2 C 157.9 311.6, 160.0 310.6, 164.2 310.6 C 168.4 310.6, 170.4 308.7, 174.6 310.7 C 178.8 312.7, 180.8 319.7, 185.0 315.6 C 189.2 311.5, 191.2 298.1, 195.4 305.4 C 199.6 312.7, 201.6 327.5, 205.8 323.7 C 210.0 319.9, 212.0 308.8, 216.2 314.3 C 220.4 319.8, 222.4 328.5, 226.6 328.0 C 230.8 327.5, 232.9 327.8, 237.1 326.8 C 241.3 325.8, 243.3 321.6, 247.5 324.2 C 251.7 326.8, 253.7 333.1, 257.9 330.7 C 262.1 328.3, 264.1 326.3, 268.3 324.8 C 272.5 323.3, 274.5 316.0, 278.7 321.1 C 282.9 326.2, 284.9 337.1, 289.1 333.8 C 293.3 330.5, 295.3 323.5, 299.5 325.5 C 303.7 327.5, 305.8 333.6, 310.0 330.6 C 314.2 327.6, 316.2 317.3, 320.4 323.0 C 324.6 328.7, 326.6 338.8, 330.8 337.2 C 335.0 335.6, 337.0 335.7, 341.2 333.1 C 345.4 330.5, 347.4 322.6, 351.6 326.6 C 355.8 330.6, 357.8 337.5, 362.0 336.7 C 366.2 335.9, 368.2 335.3, 372.4 334.7 C 376.6 334.1, 378.6 336.2, 382.8 333.1 C 387.0 330.0, 389.1 319.8, 393.3 325.3 C 397.5 330.8, 399.5 340.6, 403.7 339.1 C 407.9 337.6, 409.9 336.2, 414.1 335.3 C 418.3 334.4, 420.3 330.7, 424.5 333.0 C 428.7 335.3, 430.7 342.8, 434.9 338.8 C 439.1 334.8, 441.1 321.3, 445.3 328.9 C 449.5 336.5, 451.5 348.4, 455.7 347.8 C 459.9 347.2, 462.0 347.4, 466.2 346.3 C 470.4 345.2, 472.4 338.6, 476.6 343.6 C 480.8 348.6, 482.8 355.7, 487.0 356.0 C 491.2 356.3, 493.2 353.1, 497.4 356.7 C 501.6 360.3, 503.6 366.7, 507.8 365.8 C 512.0 364.9, 514.0 352.7, 518.2 363.5 C 522.4 374.3, 524.4 387.9, 528.6 390.4 C 532.8 392.9, 534.8 396.7, 539.0 396.7 C 543.2 396.7, 545.3 390.3, 549.5 396.8 C 553.7 403.3, 555.7 409.9, 559.9 413.1 C 564.1 416.3, 566.1 417.9, 570.3 421.0 C 574.5 424.1, 576.5 428.5, 580.7 428.7 C 584.9 428.9, 586.9 425.8, 591.1 429.2 C 595.3 432.6, 597.3 438.2, 601.5 437.8 C 605.7 437.4, 607.7 434.1, 611.9 436.7 C 616.1 439.3, 618.2 442.7, 622.4 443.1 C 626.6 443.5, 628.6 443.9, 632.8 444.0 C 637.0 444.1, 639.0 442.7, 643.2 444.2 C 647.4 445.7, 649.4 448.7, 653.6 447.9 C 657.8 447.1, 659.8 445.5, 664.0 445.9 C 668.2 446.3, 670.2 445.7, 674.4 447.0 C 678.6 448.3, 680.6 448.0, 684.8 450.2 C 689.0 452.4, 691.1 456.4, 695.3 455.6 C 699.5 454.8, 701.5 453.6, 705.7 453.5 L 716.1 453.2 "></path><g id="datapoints__With-coworkers"><circle id="15" cx="39.2" cy="450.6" r="1.8" fill="#c8a8a0" opacity="1"></circle><circle id="16" cx="49.6" cy="440" r="1.8" fill="#c8a8a0" opacity="1"></circle><circle id="17" cx="60" cy="423.9" r="1.8" fill="#c8a8a0" opacity="1"></circle><circle id="18" cx="70.4" cy="396.3" r="1.8" fill="#c8a8a0" opacity="1"></circle><circle id="19" cx="80.9" cy="363" r="1.8" fill="#c8a8a0" opacity="1"></circle><circle id="20" cx="91.3" cy="352.4" r="1.8" fill="#c8a8a0" opacity="1"></circle><circle id="21" cx="101.7" cy="347.7" r="1.8" fill="#c8a8a0" opacity="1"></circle><circle id="22" cx="112.1" cy="334.8" r="1.8" fill="#c8a8a0" opacity="1"></circle><circle id="23" cx="122.5" cy="314.4" r="1.8" fill="#c8a8a0" opacity="1"></circle><circle id="24" cx="132.9" cy="310.3" r="1.8" fill="#c8a8a0" opacity="1"></circle><circle id="25" cx="143.3" cy="316.2" r="1.8" fill="#c8a8a0" opacity="1"></circle><circle id="26" cx="153.7" cy="312.2" r="1.8" fill="#c8a8a0" opacity="1"></circle><circle id="27" cx="164.2" cy="310.6" r="1.8" fill="#c8a8a0" opacity="1"></circle><circle id="28" cx="174.6" cy="310.7" r="1.8" fill="#c8a8a0" opacity="1"></circle><circle id="29" cx="185" cy="315.6" r="1.8" fill="#c8a8a0" opacity="1"></circle><circle id="30" cx="195.4" cy="305.4" r="1.8" fill="#c8a8a0" opacity="1"></circle><circle id="31" cx="205.8" cy="323.7" r="1.8" fill="#c8a8a0" opacity="1"></circle><circle id="32" cx="216.2" cy="314.3" r="1.8" fill="#c8a8a0" opacity="1"></circle><circle id="33" cx="226.6" cy="328" r="1.8" fill="#c8a8a0" opacity="1"></circle><circle id="34" cx="237.1" cy="326.8" r="1.8" fill="#c8a8a0" opacity="1"></circle><circle id="35" cx="247.5" cy="324.2" r="1.8" fill="#c8a8a0" opacity="1"></circle><circle id="36" cx="257.9" cy="330.7" r="1.8" fill="#c8a8a0" opacity="1"></circle><circle id="37" cx="268.3" cy="324.8" r="1.8" fill="#c8a8a0" opacity="1"></circle><circle id="38" cx="278.7" cy="321.1" r="1.8" fill="#c8a8a0" opacity="1"></circle><circle id="39" cx="289.1" cy="333.8" r="1.8" fill="#c8a8a0" opacity="1"></circle><circle id="40" cx="299.5" cy="325.5" r="1.8" fill="#c8a8a0" opacity="1"></circle><circle id="41" cx="310" cy="330.6" r="1.8" fill="#c8a8a0" opacity="1"></circle><circle id="42" cx="320.4" cy="323" r="1.8" fill="#c8a8a0" opacity="1"></circle><circle id="43" cx="330.8" cy="337.2" r="1.8" fill="#c8a8a0" opacity="1"></circle><circle id="44" cx="341.2" cy="333.1" r="1.8" fill="#c8a8a0" opacity="1"></circle><circle id="45" cx="351.6" cy="326.6" r="1.8" fill="#c8a8a0" opacity="1"></circle><circle id="46" cx="362" cy="336.7" r="1.8" fill="#c8a8a0" opacity="1"></circle><circle id="47" cx="372.4" cy="334.7" r="1.8" fill="#c8a8a0" opacity="1"></circle><circle id="48" cx="382.8" cy="333.1" r="1.8" fill="#c8a8a0" opacity="1"></circle><circle id="49" cx="393.3" cy="325.3" r="1.8" fill="#c8a8a0" opacity="1"></circle><circle id="50" cx="403.7" cy="339.1" r="1.8" fill="#c8a8a0" opacity="1"></circle><circle id="51" cx="414.1" cy="335.3" r="1.8" fill="#c8a8a0" opacity="1"></circle><circle id="52" cx="424.5" cy="333" r="1.8" fill="#c8a8a0" opacity="1"></circle><circle id="53" cx="434.9" cy="338.8" r="1.8" fill="#c8a8a0" opacity="1"></circle><circle id="54" cx="445.3" cy="328.9" r="1.8" fill="#c8a8a0" opacity="1"></circle><circle id="55" cx="455.7" cy="347.8" r="1.8" fill="#c8a8a0" opacity="1"></circle><circle id="56" cx="466.2" cy="346.3" r="1.8" fill="#c8a8a0" opacity="1"></circle><circle id="57" cx="476.6" cy="343.6" r="1.8" fill="#c8a8a0" opacity="1"></circle><circle id="58" cx="487" cy="356" r="1.8" fill="#c8a8a0" opacity="1"></circle><circle id="59" cx="497.4" cy="356.7" r="1.8" fill="#c8a8a0" opacity="1"></circle><circle id="60" cx="507.8" cy="365.8" r="1.8" fill="#c8a8a0" opacity="1"></circle><circle id="61" cx="518.2" cy="363.5" r="1.8" fill="#c8a8a0" opacity="1"></circle><circle id="62" cx="528.6" cy="390.4" r="1.8" fill="#c8a8a0" opacity="1"></circle><circle id="63" cx="539" cy="396.7" r="1.8" fill="#c8a8a0" opacity="1"></circle><circle id="64" cx="549.5" cy="396.8" r="1.8" fill="#c8a8a0" opacity="1"></circle><circle id="65" cx="559.9" cy="413.1" r="1.8" fill="#c8a8a0" opacity="1"></circle><circle id="66" cx="570.3" cy="421" r="1.8" fill="#c8a8a0" opacity="1"></circle><circle id="67" cx="580.7" cy="428.7" r="1.8" fill="#c8a8a0" opacity="1"></circle><circle id="68" cx="591.1" cy="429.2" r="1.8" fill="#c8a8a0" opacity="1"></circle><circle id="69" cx="601.5" cy="437.8" r="1.8" fill="#c8a8a0" opacity="1"></circle><circle id="70" cx="611.9" cy="436.7" r="1.8" fill="#c8a8a0" opacity="1"></circle><circle id="71" cx="622.4" cy="443.1" r="1.8" fill="#c8a8a0" opacity="1"></circle><circle id="72" cx="632.8" cy="444" r="1.8" fill="#c8a8a0" opacity="1"></circle><circle id="73" cx="643.2" cy="444.2" r="1.8" fill="#c8a8a0" opacity="1"></circle><circle id="74" cx="653.6" cy="447.9" r="1.8" fill="#c8a8a0" opacity="1"></circle><circle id="75" cx="664" cy="445.9" r="1.8" fill="#c8a8a0" opacity="1"></circle><circle id="76" cx="674.4" cy="447" r="1.8" fill="#c8a8a0" opacity="1"></circle><circle id="77" cx="684.8" cy="450.2" r="1.8" fill="#c8a8a0" opacity="1"></circle><circle id="78" cx="695.3" cy="455.6" r="1.8" fill="#c8a8a0" opacity="1"></circle><circle id="79" cx="705.7" cy="453.5" r="1.8" fill="#c8a8a0" opacity="1"></circle><circle id="80" cx="716.1" cy="453.2" r="1.8" fill="#c8a8a0" opacity="1"></circle></g><path fill="none" stroke-linecap="butt" stroke-linejoin="round" stroke="#ffffff" id="outline__With-partner" stroke-width="2.5" d="M 39.2 458.1 C 43.4 458.1, 45.4 458.2, 49.6 458.0 C 53.8 457.8, 55.8 459.0, 60.0 457.4 C 64.2 455.8, 66.2 457.2, 70.4 453.5 C 74.6 449.8, 76.7 445.8, 80.9 444.3 C 85.1 442.8, 87.1 449.1, 91.3 440.5 C 95.5 431.9, 97.5 418.0, 101.7 418.9 C 105.9 419.8, 107.9 430.7, 112.1 421.1 C 116.3 411.5, 118.3 401.8, 122.5 397.0 C 126.7 392.2, 128.7 391.4, 132.9 385.1 C 137.1 378.8, 139.1 375.8, 143.3 369.4 C 147.5 363.0, 149.5 358.7, 153.7 353.5 C 157.9 348.3, 160.0 343.7, 164.2 340.5 C 168.4 337.3, 170.4 334.3, 174.6 332.4 C 178.8 330.5, 180.8 330.1, 185.0 327.7 C 189.2 325.3, 191.2 329.4, 195.4 321.8 C 199.6 314.2, 201.6 300.6, 205.8 302.8 C 210.0 305.0, 212.0 309.7, 216.2 308.2 C 220.4 306.7, 222.4 304.5, 226.6 304.5 C 230.8 304.5, 232.9 304.9, 237.1 304.5 C 241.3 304.1, 243.3 299.8, 247.5 303.5 C 251.7 307.2, 253.7 316.6, 257.9 312.8 C 262.1 309.0, 264.1 301.6, 268.3 303.3 C 272.5 305.0, 274.5 312.7, 278.7 307.5 C 282.9 302.3, 284.9 289.4, 289.1 294.4 C 293.3 299.4, 295.3 306.5, 299.5 306.9 C 303.7 307.3, 305.8 305.2, 310.0 307.8 C 314.2 310.4, 316.2 314.3, 320.4 314.3 C 324.6 314.3, 326.6 316.2, 330.8 314.3 C 335.0 312.4, 337.0 306.1, 341.2 309.6 C 345.4 313.1, 347.4 320.8, 351.6 318.4 C 355.8 316.0, 357.8 307.1, 362.0 312.3 C 366.2 317.5, 368.2 331.7, 372.4 325.3 C 376.6 318.9, 378.6 307.0, 382.8 309.3 C 387.0 311.6, 389.1 310.4, 393.3 315.0 C 397.5 319.6, 399.5 330.4, 403.7 326.5 C 407.9 322.6, 409.9 318.2, 414.1 316.7 C 418.3 315.2, 420.3 310.2, 424.5 313.0 C 428.7 315.8, 430.7 318.8, 434.9 320.0 C 439.1 321.2, 441.1 325.7, 445.3 323.0 C 449.5 320.3, 451.5 320.0, 455.7 316.3 C 459.9 312.6, 462.0 302.8, 466.2 307.0 C 470.4 311.2, 472.4 315.3, 476.6 317.5 C 480.8 319.7, 482.8 329.7, 487.0 323.0 C 491.2 316.3, 493.2 305.9, 497.4 306.3 C 501.6 306.7, 503.6 310.6, 507.8 307.2 C 512.0 303.8, 514.0 303.1, 518.2 298.8 C 522.4 294.5, 524.4 287.5, 528.6 288.1 C 532.8 288.7, 534.8 290.7, 539.0 289.7 C 543.2 288.7, 545.3 290.3, 549.5 287.1 C 553.7 283.9, 555.7 283.3, 559.9 279.2 C 564.1 275.1, 566.1 271.3, 570.3 268.9 C 574.5 266.5, 576.5 261.2, 580.7 262.8 C 584.9 264.4, 586.9 272.0, 591.1 266.9 C 595.3 261.8, 597.3 249.1, 601.5 254.1 C 605.7 259.1, 607.7 272.3, 611.9 266.7 C 616.1 261.1, 618.2 247.6, 622.4 252.8 C 626.6 258.0, 628.6 269.1, 632.8 265.9 C 637.0 262.7, 639.0 254.4, 643.2 257.8 C 647.4 261.2, 649.4 266.8, 653.6 266.2 C 657.8 265.6, 659.8 271.1, 664.0 264.7 C 668.2 258.3, 670.2 245.6, 674.4 248.6 C 678.6 251.6, 680.6 255.6, 684.8 256.2 C 689.0 256.8, 691.1 253.2, 695.3 257.6 C 699.5 262.0, 701.5 263.0, 705.7 268.7 L 716.1 283.0 "></path><path fill="none" stroke-linecap="butt" stroke-linejoin="round" stroke="#9088a0" id="line__With-partner" stroke-width="1.5" stroke-opacity="1" d="M 39.2 458.1 C 43.4 458.1, 45.4 458.2, 49.6 458.0 C 53.8 457.8, 55.8 459.0, 60.0 457.4 C 64.2 455.8, 66.2 457.2, 70.4 453.5 C 74.6 449.8, 76.7 445.8, 80.9 444.3 C 85.1 442.8, 87.1 449.1, 91.3 440.5 C 95.5 431.9, 97.5 418.0, 101.7 418.9 C 105.9 419.8, 107.9 430.7, 112.1 421.1 C 116.3 411.5, 118.3 401.8, 122.5 397.0 C 126.7 392.2, 128.7 391.4, 132.9 385.1 C 137.1 378.8, 139.1 375.8, 143.3 369.4 C 147.5 363.0, 149.5 358.7, 153.7 353.5 C 157.9 348.3, 160.0 343.7, 164.2 340.5 C 168.4 337.3, 170.4 334.3, 174.6 332.4 C 178.8 330.5, 180.8 330.1, 185.0 327.7 C 189.2 325.3, 191.2 329.4, 195.4 321.8 C 199.6 314.2, 201.6 300.6, 205.8 302.8 C 210.0 305.0, 212.0 309.7, 216.2 308.2 C 220.4 306.7, 222.4 304.5, 226.6 304.5 C 230.8 304.5, 232.9 304.9, 237.1 304.5 C 241.3 304.1, 243.3 299.8, 247.5 303.5 C 251.7 307.2, 253.7 316.6, 257.9 312.8 C 262.1 309.0, 264.1 301.6, 268.3 303.3 C 272.5 305.0, 274.5 312.7, 278.7 307.5 C 282.9 302.3, 284.9 289.4, 289.1 294.4 C 293.3 299.4, 295.3 306.5, 299.5 306.9 C 303.7 307.3, 305.8 305.2, 310.0 307.8 C 314.2 310.4, 316.2 314.3, 320.4 314.3 C 324.6 314.3, 326.6 316.2, 330.8 314.3 C 335.0 312.4, 337.0 306.1, 341.2 309.6 C 345.4 313.1, 347.4 320.8, 351.6 318.4 C 355.8 316.0, 357.8 307.1, 362.0 312.3 C 366.2 317.5, 368.2 331.7, 372.4 325.3 C 376.6 318.9, 378.6 307.0, 382.8 309.3 C 387.0 311.6, 389.1 310.4, 393.3 315.0 C 397.5 319.6, 399.5 330.4, 403.7 326.5 C 407.9 322.6, 409.9 318.2, 414.1 316.7 C 418.3 315.2, 420.3 310.2, 424.5 313.0 C 428.7 315.8, 430.7 318.8, 434.9 320.0 C 439.1 321.2, 441.1 325.7, 445.3 323.0 C 449.5 320.3, 451.5 320.0, 455.7 316.3 C 459.9 312.6, 462.0 302.8, 466.2 307.0 C 470.4 311.2, 472.4 315.3, 476.6 317.5 C 480.8 319.7, 482.8 329.7, 487.0 323.0 C 491.2 316.3, 493.2 305.9, 497.4 306.3 C 501.6 306.7, 503.6 310.6, 507.8 307.2 C 512.0 303.8, 514.0 303.1, 518.2 298.8 C 522.4 294.5, 524.4 287.5, 528.6 288.1 C 532.8 288.7, 534.8 290.7, 539.0 289.7 C 543.2 288.7, 545.3 290.3, 549.5 287.1 C 553.7 283.9, 555.7 283.3, 559.9 279.2 C 564.1 275.1, 566.1 271.3, 570.3 268.9 C 574.5 266.5, 576.5 261.2, 580.7 262.8 C 584.9 264.4, 586.9 272.0, 591.1 266.9 C 595.3 261.8, 597.3 249.1, 601.5 254.1 C 605.7 259.1, 607.7 272.3, 611.9 266.7 C 616.1 261.1, 618.2 247.6, 622.4 252.8 C 626.6 258.0, 628.6 269.1, 632.8 265.9 C 637.0 262.7, 639.0 254.4, 643.2 257.8 C 647.4 261.2, 649.4 266.8, 653.6 266.2 C 657.8 265.6, 659.8 271.1, 664.0 264.7 C 668.2 258.3, 670.2 245.6, 674.4 248.6 C 678.6 251.6, 680.6 255.6, 684.8 256.2 C 689.0 256.8, 691.1 253.2, 695.3 257.6 C 699.5 262.0, 701.5 263.0, 705.7 268.7 L 716.1 283.0 "></path><g id="datapoints__With-partner"><circle id="15" cx="39.2" cy="458.1" r="1.8" fill="#9088a0" opacity="1"></circle><circle id="16" cx="49.6" cy="458" r="1.8" fill="#9088a0" opacity="1"></circle><circle id="17" cx="60" cy="457.4" r="1.8" fill="#9088a0" opacity="1"></circle><circle id="18" cx="70.4" cy="453.5" r="1.8" fill="#9088a0" opacity="1"></circle><circle id="19" cx="80.9" cy="444.3" r="1.8" fill="#9088a0" opacity="1"></circle><circle id="20" cx="91.3" cy="440.5" r="1.8" fill="#9088a0" opacity="1"></circle><circle id="21" cx="101.7" cy="418.9" r="1.8" fill="#9088a0" opacity="1"></circle><circle id="22" cx="112.1" cy="421.1" r="1.8" fill="#9088a0" opacity="1"></circle><circle id="23" cx="122.5" cy="397" r="1.8" fill="#9088a0" opacity="1"></circle><circle id="24" cx="132.9" cy="385.1" r="1.8" fill="#9088a0" opacity="1"></circle><circle id="25" cx="143.3" cy="369.4" r="1.8" fill="#9088a0" opacity="1"></circle><circle id="26" cx="153.7" cy="353.5" r="1.8" fill="#9088a0" opacity="1"></circle><circle id="27" cx="164.2" cy="340.5" r="1.8" fill="#9088a0" opacity="1"></circle><circle id="28" cx="174.6" cy="332.4" r="1.8" fill="#9088a0" opacity="1"></circle><circle id="29" cx="185" cy="327.7" r="1.8" fill="#9088a0" opacity="1"></circle><circle id="30" cx="195.4" cy="321.8" r="1.8" fill="#9088a0" opacity="1"></circle><circle id="31" cx="205.8" cy="302.8" r="1.8" fill="#9088a0" opacity="1"></circle><circle id="32" cx="216.2" cy="308.2" r="1.8" fill="#9088a0" opacity="1"></circle><circle id="33" cx="226.6" cy="304.5" r="1.8" fill="#9088a0" opacity="1"></circle><circle id="34" cx="237.1" cy="304.5" r="1.8" fill="#9088a0" opacity="1"></circle><circle id="35" cx="247.5" cy="303.5" r="1.8" fill="#9088a0" opacity="1"></circle><circle id="36" cx="257.9" cy="312.8" r="1.8" fill="#9088a0" opacity="1"></circle><circle id="37" cx="268.3" cy="303.3" r="1.8" fill="#9088a0" opacity="1"></circle><circle id="38" cx="278.7" cy="307.5" r="1.8" fill="#9088a0" opacity="1"></circle><circle id="39" cx="289.1" cy="294.4" r="1.8" fill="#9088a0" opacity="1"></circle><circle id="40" cx="299.5" cy="306.9" r="1.8" fill="#9088a0" opacity="1"></circle><circle id="41" cx="310" cy="307.8" r="1.8" fill="#9088a0" opacity="1"></circle><circle id="42" cx="320.4" cy="314.3" r="1.8" fill="#9088a0" opacity="1"></circle><circle id="43" cx="330.8" cy="314.3" r="1.8" fill="#9088a0" opacity="1"></circle><circle id="44" cx="341.2" cy="309.6" r="1.8" fill="#9088a0" opacity="1"></circle><circle id="45" cx="351.6" cy="318.4" r="1.8" fill="#9088a0" opacity="1"></circle><circle id="46" cx="362" cy="312.3" r="1.8" fill="#9088a0" opacity="1"></circle><circle id="47" cx="372.4" cy="325.3" r="1.8" fill="#9088a0" opacity="1"></circle><circle id="48" cx="382.8" cy="309.3" r="1.8" fill="#9088a0" opacity="1"></circle><circle id="49" cx="393.3" cy="315" r="1.8" fill="#9088a0" opacity="1"></circle><circle id="50" cx="403.7" cy="326.5" r="1.8" fill="#9088a0" opacity="1"></circle><circle id="51" cx="414.1" cy="316.7" r="1.8" fill="#9088a0" opacity="1"></circle><circle id="52" cx="424.5" cy="313" r="1.8" fill="#9088a0" opacity="1"></circle><circle id="53" cx="434.9" cy="320" r="1.8" fill="#9088a0" opacity="1"></circle><circle id="54" cx="445.3" cy="323" r="1.8" fill="#9088a0" opacity="1"></circle><circle id="55" cx="455.7" cy="316.3" r="1.8" fill="#9088a0" opacity="1"></circle><circle id="56" cx="466.2" cy="307" r="1.8" fill="#9088a0" opacity="1"></circle><circle id="57" cx="476.6" cy="317.5" r="1.8" fill="#9088a0" opacity="1"></circle><circle id="58" cx="487" cy="323" r="1.8" fill="#9088a0" opacity="1"></circle><circle id="59" cx="497.4" cy="306.3" r="1.8" fill="#9088a0" opacity="1"></circle><circle id="60" cx="507.8" cy="307.2" r="1.8" fill="#9088a0" opacity="1"></circle><circle id="61" cx="518.2" cy="298.8" r="1.8" fill="#9088a0" opacity="1"></circle><circle id="62" cx="528.6" cy="288.1" r="1.8" fill="#9088a0" opacity="1"></circle><circle id="63" cx="539" cy="289.7" r="1.8" fill="#9088a0" opacity="1"></circle><circle id="64" cx="549.5" cy="287.1" r="1.8" fill="#9088a0" opacity="1"></circle><circle id="65" cx="559.9" cy="279.2" r="1.8" fill="#9088a0" opacity="1"></circle><circle id="66" cx="570.3" cy="268.9" r="1.8" fill="#9088a0" opacity="1"></circle><circle id="67" cx="580.7" cy="262.8" r="1.8" fill="#9088a0" opacity="1"></circle><circle id="68" cx="591.1" cy="266.9" r="1.8" fill="#9088a0" opacity="1"></circle><circle id="69" cx="601.5" cy="254.1" r="1.8" fill="#9088a0" opacity="1"></circle><circle id="70" cx="611.9" cy="266.7" r="1.8" fill="#9088a0" opacity="1"></circle><circle id="71" cx="622.4" cy="252.8" r="1.8" fill="#9088a0" opacity="1"></circle><circle id="72" cx="632.8" cy="265.9" r="1.8" fill="#9088a0" opacity="1"></circle><circle id="73" cx="643.2" cy="257.8" r="1.8" fill="#9088a0" opacity="1"></circle><circle id="74" cx="653.6" cy="266.2" r="1.8" fill="#9088a0" opacity="1"></circle><circle id="75" cx="664" cy="264.7" r="1.8" fill="#9088a0" opacity="1"></circle><circle id="76" cx="674.4" cy="248.6" r="1.8" fill="#9088a0" opacity="1"></circle><circle id="77" cx="684.8" cy="256.2" r="1.8" fill="#9088a0" opacity="1"></circle><circle id="78" cx="695.3" cy="257.6" r="1.8" fill="#9088a0" opacity="1"></circle><circle id="79" cx="705.7" cy="268.7" r="1.8" fill="#9088a0" opacity="1"></circle><circle id="80" cx="716.1" cy="283" r="1.8" fill="#9088a0" opacity="1"></circle></g><path fill="none" stroke-linecap="butt" stroke-linejoin="round" stroke="#ffffff" id="outline__With-family" stroke-width="2.5" d="M 39.2 261.8 C 43.4 265.6, 45.4 263.9, 49.6 271.2 C 53.8 278.5, 55.8 291.1, 60.0 289.5 C 64.2 287.9, 66.2 269.9, 70.4 285.4 C 74.6 300.9, 76.7 324.2, 80.9 324.2 C 85.1 324.2, 87.1 316.6, 91.3 324.3 C 95.5 332.0, 97.5 339.0, 101.7 343.5 C 105.9 348.0, 107.9 350.9, 112.1 354.7 C 116.3 358.5, 118.3 360.1, 122.5 364.2 C 126.7 368.3, 128.7 370.0, 132.9 374.5 C 137.1 379.0, 139.1 382.4, 143.3 385.7 C 147.5 389.0, 149.5 393.1, 153.7 393.9 C 157.9 394.7, 160.0 393.1, 164.2 395.8 C 168.4 398.5, 170.4 404.4, 174.6 402.6 C 178.8 400.8, 180.8 393.6, 185.0 398.1 C 189.2 402.6, 191.2 410.2, 195.4 409.3 C 199.6 408.4, 201.6 404.9, 205.8 407.1 C 210.0 409.3, 212.0 412.3, 216.2 412.5 C 220.4 412.7, 222.4 414.0, 226.6 412.9 C 230.8 411.8, 232.9 407.9, 237.1 410.2 C 241.3 412.5, 243.3 417.0, 247.5 415.9 C 251.7 414.8, 253.7 412.3, 257.9 413.1 C 262.1 413.9, 264.1 415.0, 268.3 415.2 C 272.5 415.4, 274.5 415.0, 278.7 415.6 C 282.9 416.2, 284.9 415.1, 289.1 417.0 C 293.3 418.9, 295.3 423.7, 299.5 421.7 C 303.7 419.7, 305.8 414.2, 310.0 416.6 C 314.2 419.0, 316.2 424.0, 320.4 422.5 C 324.6 421.0, 326.6 419.1, 330.8 418.8 C 335.0 418.5, 337.0 418.8, 341.2 418.0 C 345.4 417.2, 347.4 415.2, 351.6 415.9 C 355.8 416.6, 357.8 417.9, 362.0 417.6 C 366.2 417.3, 368.2 417.1, 372.4 416.9 C 376.6 416.7, 378.6 416.7, 382.8 416.5 C 387.0 416.3, 389.1 417.8, 393.3 415.9 C 397.5 414.0, 399.5 410.8, 403.7 411.2 C 407.9 411.6, 409.9 413.4, 414.1 412.2 C 418.3 411.0, 420.3 406.6, 424.5 409.2 C 428.7 411.8, 430.7 416.1, 434.9 415.7 C 439.1 415.3, 441.1 416.1, 445.3 414.6 C 449.5 413.1, 451.5 411.3, 455.7 410.8 C 459.9 410.3, 462.0 407.8, 466.2 409.6 C 470.4 411.4, 472.4 417.0, 476.6 414.1 C 480.8 411.2, 482.8 405.8, 487.0 406.9 C 491.2 408.0, 493.2 409.7, 497.4 409.6 C 501.6 409.5, 503.6 407.8, 507.8 409.4 C 512.0 411.0, 514.0 412.5, 518.2 413.3 C 522.4 414.1, 524.4 417.8, 528.6 415.3 C 532.8 412.8, 534.8 407.0, 539.0 409.0 C 543.2 411.0, 545.3 416.1, 549.5 413.9 C 553.7 411.7, 555.7 409.1, 559.9 408.4 C 564.1 407.7, 566.1 402.7, 570.3 406.6 C 574.5 410.5, 576.5 416.3, 580.7 416.3 C 584.9 416.3, 586.9 417.5, 591.1 416.4 C 595.3 415.3, 597.3 412.4, 601.5 413.7 C 605.7 415.0, 607.7 417.3, 611.9 416.9 C 616.1 416.5, 618.2 415.0, 622.4 415.8 C 626.6 416.6, 628.6 417.3, 632.8 417.8 C 637.0 418.3, 639.0 420.0, 643.2 419.0 C 647.4 418.0, 649.4 415.8, 653.6 416.5 C 657.8 417.2, 659.8 416.9, 664.0 418.3 C 668.2 419.7, 670.2 426.4, 674.4 421.9 C 678.6 417.4, 680.6 408.7, 684.8 410.7 C 689.0 412.7, 691.1 413.3, 695.3 415.6 C 699.5 417.9, 701.5 424.4, 705.7 421.3 L 716.1 413.6 "></path><path fill="none" stroke-linecap="butt" stroke-linejoin="round" stroke="#8c9c88" id="line__With-family" stroke-width="1.5" stroke-opacity="1" d="M 39.2 261.8 C 43.4 265.6, 45.4 263.9, 49.6 271.2 C 53.8 278.5, 55.8 291.1, 60.0 289.5 C 64.2 287.9, 66.2 269.9, 70.4 285.4 C 74.6 300.9, 76.7 324.2, 80.9 324.2 C 85.1 324.2, 87.1 316.6, 91.3 324.3 C 95.5 332.0, 97.5 339.0, 101.7 343.5 C 105.9 348.0, 107.9 350.9, 112.1 354.7 C 116.3 358.5, 118.3 360.1, 122.5 364.2 C 126.7 368.3, 128.7 370.0, 132.9 374.5 C 137.1 379.0, 139.1 382.4, 143.3 385.7 C 147.5 389.0, 149.5 393.1, 153.7 393.9 C 157.9 394.7, 160.0 393.1, 164.2 395.8 C 168.4 398.5, 170.4 404.4, 174.6 402.6 C 178.8 400.8, 180.8 393.6, 185.0 398.1 C 189.2 402.6, 191.2 410.2, 195.4 409.3 C 199.6 408.4, 201.6 404.9, 205.8 407.1 C 210.0 409.3, 212.0 412.3, 216.2 412.5 C 220.4 412.7, 222.4 414.0, 226.6 412.9 C 230.8 411.8, 232.9 407.9, 237.1 410.2 C 241.3 412.5, 243.3 417.0, 247.5 415.9 C 251.7 414.8, 253.7 412.3, 257.9 413.1 C 262.1 413.9, 264.1 415.0, 268.3 415.2 C 272.5 415.4, 274.5 415.0, 278.7 415.6 C 282.9 416.2, 284.9 415.1, 289.1 417.0 C 293.3 418.9, 295.3 423.7, 299.5 421.7 C 303.7 419.7, 305.8 414.2, 310.0 416.6 C 314.2 419.0, 316.2 424.0, 320.4 422.5 C 324.6 421.0, 326.6 419.1, 330.8 418.8 C 335.0 418.5, 337.0 418.8, 341.2 418.0 C 345.4 417.2, 347.4 415.2, 351.6 415.9 C 355.8 416.6, 357.8 417.9, 362.0 417.6 C 366.2 417.3, 368.2 417.1, 372.4 416.9 C 376.6 416.7, 378.6 416.7, 382.8 416.5 C 387.0 416.3, 389.1 417.8, 393.3 415.9 C 397.5 414.0, 399.5 410.8, 403.7 411.2 C 407.9 411.6, 409.9 413.4, 414.1 412.2 C 418.3 411.0, 420.3 406.6, 424.5 409.2 C 428.7 411.8, 430.7 416.1, 434.9 415.7 C 439.1 415.3, 441.1 416.1, 445.3 414.6 C 449.5 413.1, 451.5 411.3, 455.7 410.8 C 459.9 410.3, 462.0 407.8, 466.2 409.6 C 470.4 411.4, 472.4 417.0, 476.6 414.1 C 480.8 411.2, 482.8 405.8, 487.0 406.9 C 491.2 408.0, 493.2 409.7, 497.4 409.6 C 501.6 409.5, 503.6 407.8, 507.8 409.4 C 512.0 411.0, 514.0 412.5, 518.2 413.3 C 522.4 414.1, 524.4 417.8, 528.6 415.3 C 532.8 412.8, 534.8 407.0, 539.0 409.0 C 543.2 411.0, 545.3 416.1, 549.5 413.9 C 553.7 411.7, 555.7 409.1, 559.9 408.4 C 564.1 407.7, 566.1 402.7, 570.3 406.6 C 574.5 410.5, 576.5 416.3, 580.7 416.3 C 584.9 416.3, 586.9 417.5, 591.1 416.4 C 595.3 415.3, 597.3 412.4, 601.5 413.7 C 605.7 415.0, 607.7 417.3, 611.9 416.9 C 616.1 416.5, 618.2 415.0, 622.4 415.8 C 626.6 416.6, 628.6 417.3, 632.8 417.8 C 637.0 418.3, 639.0 420.0, 643.2 419.0 C 647.4 418.0, 649.4 415.8, 653.6 416.5 C 657.8 417.2, 659.8 416.9, 664.0 418.3 C 668.2 419.7, 670.2 426.4, 674.4 421.9 C 678.6 417.4, 680.6 408.7, 684.8 410.7 C 689.0 412.7, 691.1 413.3, 695.3 415.6 C 699.5 417.9, 701.5 424.4, 705.7 421.3 L 716.1 413.6 "></path><g id="datapoints__With-family"><circle id="15" cx="39.2" cy="261.8" r="1.8" fill="#8c9c88" opacity="1"></circle><circle id="16" cx="49.6" cy="271.2" r="1.8" fill="#8c9c88" opacity="1"></circle><circle id="17" cx="60" cy="289.5" r="1.8" fill="#8c9c88" opacity="1"></circle><circle id="18" cx="70.4" cy="285.4" r="1.8" fill="#8c9c88" opacity="1"></circle><circle id="19" cx="80.9" cy="324.2" r="1.8" fill="#8c9c88" opacity="1"></circle><circle id="20" cx="91.3" cy="324.3" r="1.8" fill="#8c9c88" opacity="1"></circle><circle id="21" cx="101.7" cy="343.5" r="1.8" fill="#8c9c88" opacity="1"></circle><circle id="22" cx="112.1" cy="354.7" r="1.8" fill="#8c9c88" opacity="1"></circle><circle id="23" cx="122.5" cy="364.2" r="1.8" fill="#8c9c88" opacity="1"></circle><circle id="24" cx="132.9" cy="374.5" r="1.8" fill="#8c9c88" opacity="1"></circle><circle id="25" cx="143.3" cy="385.7" r="1.8" fill="#8c9c88" opacity="1"></circle><circle id="26" cx="153.7" cy="393.9" r="1.8" fill="#8c9c88" opacity="1"></circle><circle id="27" cx="164.2" cy="395.8" r="1.8" fill="#8c9c88" opacity="1"></circle><circle id="28" cx="174.6" cy="402.6" r="1.8" fill="#8c9c88" opacity="1"></circle><circle id="29" cx="185" cy="398.1" r="1.8" fill="#8c9c88" opacity="1"></circle><circle id="30" cx="195.4" cy="409.3" r="1.8" fill="#8c9c88" opacity="1"></circle><circle id="31" cx="205.8" cy="407.1" r="1.8" fill="#8c9c88" opacity="1"></circle><circle id="32" cx="216.2" cy="412.5" r="1.8" fill="#8c9c88" opacity="1"></circle><circle id="33" cx="226.6" cy="412.9" r="1.8" fill="#8c9c88" opacity="1"></circle><circle id="34" cx="237.1" cy="410.2" r="1.8" fill="#8c9c88" opacity="1"></circle><circle id="35" cx="247.5" cy="415.9" r="1.8" fill="#8c9c88" opacity="1"></circle><circle id="36" cx="257.9" cy="413.1" r="1.8" fill="#8c9c88" opacity="1"></circle><circle id="37" cx="268.3" cy="415.2" r="1.8" fill="#8c9c88" opacity="1"></circle><circle id="38" cx="278.7" cy="415.6" r="1.8" fill="#8c9c88" opacity="1"></circle><circle id="39" cx="289.1" cy="417" r="1.8" fill="#8c9c88" opacity="1"></circle><circle id="40" cx="299.5" cy="421.7" r="1.8" fill="#8c9c88" opacity="1"></circle><circle id="41" cx="310" cy="416.6" r="1.8" fill="#8c9c88" opacity="1"></circle><circle id="42" cx="320.4" cy="422.5" r="1.8" fill="#8c9c88" opacity="1"></circle><circle id="43" cx="330.8" cy="418.8" r="1.8" fill="#8c9c88" opacity="1"></circle><circle id="44" cx="341.2" cy="418" r="1.8" fill="#8c9c88" opacity="1"></circle><circle id="45" cx="351.6" cy="415.9" r="1.8" fill="#8c9c88" opacity="1"></circle><circle id="46" cx="362" cy="417.6" r="1.8" fill="#8c9c88" opacity="1"></circle><circle id="47" cx="372.4" cy="416.9" r="1.8" fill="#8c9c88" opacity="1"></circle><circle id="48" cx="382.8" cy="416.5" r="1.8" fill="#8c9c88" opacity="1"></circle><circle id="49" cx="393.3" cy="415.9" r="1.8" fill="#8c9c88" opacity="1"></circle><circle id="50" cx="403.7" cy="411.2" r="1.8" fill="#8c9c88" opacity="1"></circle><circle id="51" cx="414.1" cy="412.2" r="1.8" fill="#8c9c88" opacity="1"></circle><circle id="52" cx="424.5" cy="409.2" r="1.8" fill="#8c9c88" opacity="1"></circle><circle id="53" cx="434.9" cy="415.7" r="1.8" fill="#8c9c88" opacity="1"></circle><circle id="54" cx="445.3" cy="414.6" r="1.8" fill="#8c9c88" opacity="1"></circle><circle id="55" cx="455.7" cy="410.8" r="1.8" fill="#8c9c88" opacity="1"></circle><circle id="56" cx="466.2" cy="409.6" r="1.8" fill="#8c9c88" opacity="1"></circle><circle id="57" cx="476.6" cy="414.1" r="1.8" fill="#8c9c88" opacity="1"></circle><circle id="58" cx="487" cy="406.9" r="1.8" fill="#8c9c88" opacity="1"></circle><circle id="59" cx="497.4" cy="409.6" r="1.8" fill="#8c9c88" opacity="1"></circle><circle id="60" cx="507.8" cy="409.4" r="1.8" fill="#8c9c88" opacity="1"></circle><circle id="61" cx="518.2" cy="413.3" r="1.8" fill="#8c9c88" opacity="1"></circle><circle id="62" cx="528.6" cy="415.3" r="1.8" fill="#8c9c88" opacity="1"></circle><circle id="63" cx="539" cy="409" r="1.8" fill="#8c9c88" opacity="1"></circle><circle id="64" cx="549.5" cy="413.9" r="1.8" fill="#8c9c88" opacity="1"></circle><circle id="65" cx="559.9" cy="408.4" r="1.8" fill="#8c9c88" opacity="1"></circle><circle id="66" cx="570.3" cy="406.6" r="1.8" fill="#8c9c88" opacity="1"></circle><circle id="67" cx="580.7" cy="416.3" r="1.8" fill="#8c9c88" opacity="1"></circle><circle id="68" cx="591.1" cy="416.4" r="1.8" fill="#8c9c88" opacity="1"></circle><circle id="69" cx="601.5" cy="413.7" r="1.8" fill="#8c9c88" opacity="1"></circle><circle id="70" cx="611.9" cy="416.9" r="1.8" fill="#8c9c88" opacity="1"></circle><circle id="71" cx="622.4" cy="415.8" r="1.8" fill="#8c9c88" opacity="1"></circle><circle id="72" cx="632.8" cy="417.8" r="1.8" fill="#8c9c88" opacity="1"></circle><circle id="73" cx="643.2" cy="419" r="1.8" fill="#8c9c88" opacity="1"></circle><circle id="74" cx="653.6" cy="416.5" r="1.8" fill="#8c9c88" opacity="1"></circle><circle id="75" cx="664" cy="418.3" r="1.8" fill="#8c9c88" opacity="1"></circle><circle id="76" cx="674.4" cy="421.9" r="1.8" fill="#8c9c88" opacity="1"></circle><circle id="77" cx="684.8" cy="410.7" r="1.8" fill="#8c9c88" opacity="1"></circle><circle id="78" cx="695.3" cy="415.6" r="1.8" fill="#8c9c88" opacity="1"></circle><circle id="79" cx="705.7" cy="421.3" r="1.8" fill="#8c9c88" opacity="1"></circle><circle id="80" cx="716.1" cy="413.6" r="1.8" fill="#8c9c88" opacity="1"></circle></g><path fill="none" stroke-linecap="butt" stroke-linejoin="round" stroke="#ffffff" id="outline__With-children" stroke-width="2.5" d="M 39.2 441.6 C 43.4 441.0, 45.4 440.2, 49.6 440.1 C 53.8 440.0, 55.8 441.5, 60.0 439.9 C 64.2 438.3, 66.2 435.4, 70.4 435.9 C 74.6 436.4, 76.7 442.2, 80.9 437.1 C 85.1 432.0, 87.1 429.3, 91.3 424.3 C 95.5 419.3, 97.5 411.9, 101.7 411.9 C 105.9 411.9, 107.9 420.2, 112.1 412.0 C 116.3 403.8, 118.3 391.8, 122.5 391.6 C 126.7 391.4, 128.7 396.1, 132.9 391.0 C 137.1 385.9, 139.1 380.1, 143.3 378.3 C 147.5 376.5, 149.5 383.1, 153.7 373.9 C 157.9 364.7, 160.0 358.6, 164.2 350.9 C 168.4 343.2, 170.4 334.8, 174.6 331.6 C 178.8 328.4, 180.8 326.7, 185.0 323.7 C 189.2 320.7, 191.2 324.2, 195.4 316.1 C 199.6 308.0, 201.6 297.5, 205.8 295.8 C 210.0 294.1, 212.0 301.6, 216.2 291.5 C 220.4 281.4, 222.4 266.1, 226.6 266.2 C 230.8 266.3, 232.9 266.2, 237.1 266.5 C 241.3 266.8, 243.3 266.9, 247.5 267.3 C 251.7 267.7, 253.7 266.9, 257.9 268.2 C 262.1 269.5, 264.1 272.9, 268.3 271.5 C 272.5 270.1, 274.5 270.6, 278.7 268.1 C 282.9 265.6, 284.9 254.6, 289.1 261.8 C 293.3 269.0, 295.3 282.0, 299.5 279.9 C 303.7 277.8, 305.8 268.0, 310.0 274.7 C 314.2 281.4, 316.2 289.5, 320.4 291.5 C 324.6 293.5, 326.6 296.1, 330.8 296.6 C 335.0 297.1, 337.0 296.0, 341.2 297.8 C 345.4 299.6, 347.4 294.9, 351.6 302.4 C 355.8 309.9, 357.8 317.6, 362.0 321.1 C 366.2 324.6, 368.2 325.0, 372.4 329.8 C 376.6 334.6, 378.6 337.9, 382.8 341.7 C 387.0 345.5, 389.1 348.3, 393.3 351.1 C 397.5 353.9, 399.5 355.1, 403.7 358.0 C 407.9 360.9, 409.9 359.8, 414.1 365.2 C 418.3 370.6, 420.3 377.8, 424.5 378.6 C 428.7 379.4, 430.7 376.6, 434.9 380.7 C 439.1 384.8, 441.1 390.5, 445.3 390.9 C 449.5 391.3, 451.5 388.9, 455.7 391.8 C 459.9 394.7, 462.0 398.4, 466.2 399.0 C 470.4 399.6, 472.4 397.3, 476.6 400.4 C 480.8 403.5, 482.8 408.9, 487.0 408.1 C 491.2 407.3, 493.2 404.3, 497.4 406.0 C 501.6 407.7, 503.6 411.4, 507.8 410.2 C 512.0 409.0, 514.0 405.0, 518.2 407.2 C 522.4 409.4, 524.4 411.7, 528.6 412.6 C 532.8 413.5, 534.8 414.3, 539.0 414.8 C 543.2 415.3, 545.3 416.1, 549.5 416.1 C 553.7 416.1, 555.7 416.7, 559.9 416.2 C 564.1 415.7, 566.1 414.7, 570.3 415.0 C 574.5 415.3, 576.5 415.4, 580.7 415.8 C 584.9 416.2, 586.9 419.3, 591.1 416.9 C 595.3 414.5, 597.3 407.8, 601.5 410.8 C 605.7 413.8, 607.7 419.6, 611.9 418.2 C 616.1 416.8, 618.2 410.9, 622.4 414.7 C 626.6 418.5, 628.6 427.0, 632.8 424.3 C 637.0 421.6, 639.0 415.9, 643.2 417.5 C 647.4 419.1, 649.4 422.4, 653.6 421.5 C 657.8 420.6, 659.8 416.8, 664.0 419.2 C 668.2 421.6, 670.2 425.2, 674.4 425.1 C 678.6 425.0, 680.6 424.8, 684.8 424.9 C 689.0 425.0, 691.1 423.1, 695.3 425.2 C 699.5 427.3, 701.5 432.5, 705.7 430.4 L 716.1 425.1 "></path><path fill="none" stroke-linecap="butt" stroke-linejoin="round" stroke="#b8a088" id="line__With-children" stroke-width="1.5" stroke-opacity="1" d="M 39.2 441.6 C 43.4 441.0, 45.4 440.2, 49.6 440.1 C 53.8 440.0, 55.8 441.5, 60.0 439.9 C 64.2 438.3, 66.2 435.4, 70.4 435.9 C 74.6 436.4, 76.7 442.2, 80.9 437.1 C 85.1 432.0, 87.1 429.3, 91.3 424.3 C 95.5 419.3, 97.5 411.9, 101.7 411.9 C 105.9 411.9, 107.9 420.2, 112.1 412.0 C 116.3 403.8, 118.3 391.8, 122.5 391.6 C 126.7 391.4, 128.7 396.1, 132.9 391.0 C 137.1 385.9, 139.1 380.1, 143.3 378.3 C 147.5 376.5, 149.5 383.1, 153.7 373.9 C 157.9 364.7, 160.0 358.6, 164.2 350.9 C 168.4 343.2, 170.4 334.8, 174.6 331.6 C 178.8 328.4, 180.8 326.7, 185.0 323.7 C 189.2 320.7, 191.2 324.2, 195.4 316.1 C 199.6 308.0, 201.6 297.5, 205.8 295.8 C 210.0 294.1, 212.0 301.6, 216.2 291.5 C 220.4 281.4, 222.4 266.1, 226.6 266.2 C 230.8 266.3, 232.9 266.2, 237.1 266.5 C 241.3 266.8, 243.3 266.9, 247.5 267.3 C 251.7 267.7, 253.7 266.9, 257.9 268.2 C 262.1 269.5, 264.1 272.9, 268.3 271.5 C 272.5 270.1, 274.5 270.6, 278.7 268.1 C 282.9 265.6, 284.9 254.6, 289.1 261.8 C 293.3 269.0, 295.3 282.0, 299.5 279.9 C 303.7 277.8, 305.8 268.0, 310.0 274.7 C 314.2 281.4, 316.2 289.5, 320.4 291.5 C 324.6 293.5, 326.6 296.1, 330.8 296.6 C 335.0 297.1, 337.0 296.0, 341.2 297.8 C 345.4 299.6, 347.4 294.9, 351.6 302.4 C 355.8 309.9, 357.8 317.6, 362.0 321.1 C 366.2 324.6, 368.2 325.0, 372.4 329.8 C 376.6 334.6, 378.6 337.9, 382.8 341.7 C 387.0 345.5, 389.1 348.3, 393.3 351.1 C 397.5 353.9, 399.5 355.1, 403.7 358.0 C 407.9 360.9, 409.9 359.8, 414.1 365.2 C 418.3 370.6, 420.3 377.8, 424.5 378.6 C 428.7 379.4, 430.7 376.6, 434.9 380.7 C 439.1 384.8, 441.1 390.5, 445.3 390.9 C 449.5 391.3, 451.5 388.9, 455.7 391.8 C 459.9 394.7, 462.0 398.4, 466.2 399.0 C 470.4 399.6, 472.4 397.3, 476.6 400.4 C 480.8 403.5, 482.8 408.9, 487.0 408.1 C 491.2 407.3, 493.2 404.3, 497.4 406.0 C 501.6 407.7, 503.6 411.4, 507.8 410.2 C 512.0 409.0, 514.0 405.0, 518.2 407.2 C 522.4 409.4, 524.4 411.7, 528.6 412.6 C 532.8 413.5, 534.8 414.3, 539.0 414.8 C 543.2 415.3, 545.3 416.1, 549.5 416.1 C 553.7 416.1, 555.7 416.7, 559.9 416.2 C 564.1 415.7, 566.1 414.7, 570.3 415.0 C 574.5 415.3, 576.5 415.4, 580.7 415.8 C 584.9 416.2, 586.9 419.3, 591.1 416.9 C 595.3 414.5, 597.3 407.8, 601.5 410.8 C 605.7 413.8, 607.7 419.6, 611.9 418.2 C 616.1 416.8, 618.2 410.9, 622.4 414.7 C 626.6 418.5, 628.6 427.0, 632.8 424.3 C 637.0 421.6, 639.0 415.9, 643.2 417.5 C 647.4 419.1, 649.4 422.4, 653.6 421.5 C 657.8 420.6, 659.8 416.8, 664.0 419.2 C 668.2 421.6, 670.2 425.2, 674.4 425.1 C 678.6 425.0, 680.6 424.8, 684.8 424.9 C 689.0 425.0, 691.1 423.1, 695.3 425.2 C 699.5 427.3, 701.5 432.5, 705.7 430.4 L 716.1 425.1 "></path><g id="datapoints__With-children"><circle id="15" cx="39.2" cy="441.6" r="1.8" fill="#b8a088" opacity="1"></circle><circle id="16" cx="49.6" cy="440.1" r="1.8" fill="#b8a088" opacity="1"></circle><circle id="17" cx="60" cy="439.9" r="1.8" fill="#b8a088" opacity="1"></circle><circle id="18" cx="70.4" cy="435.9" r="1.8" fill="#b8a088" opacity="1"></circle><circle id="19" cx="80.9" cy="437.1" r="1.8" fill="#b8a088" opacity="1"></circle><circle id="20" cx="91.3" cy="424.3" r="1.8" fill="#b8a088" opacity="1"></circle><circle id="21" cx="101.7" cy="411.9" r="1.8" fill="#b8a088" opacity="1"></circle><circle id="22" cx="112.1" cy="412" r="1.8" fill="#b8a088" opacity="1"></circle><circle id="23" cx="122.5" cy="391.6" r="1.8" fill="#b8a088" opacity="1"></circle><circle id="24" cx="132.9" cy="391" r="1.8" fill="#b8a088" opacity="1"></circle><circle id="25" cx="143.3" cy="378.3" r="1.8" fill="#b8a088" opacity="1"></circle><circle id="26" cx="153.7" cy="373.9" r="1.8" fill="#b8a088" opacity="1"></circle><circle id="27" cx="164.2" cy="350.9" r="1.8" fill="#b8a088" opacity="1"></circle><circle id="28" cx="174.6" cy="331.6" r="1.8" fill="#b8a088" opacity="1"></circle><circle id="29" cx="185" cy="323.7" r="1.8" fill="#b8a088" opacity="1"></circle><circle id="30" cx="195.4" cy="316.1" r="1.8" fill="#b8a088" opacity="1"></circle><circle id="31" cx="205.8" cy="295.8" r="1.8" fill="#b8a088" opacity="1"></circle><circle id="32" cx="216.2" cy="291.5" r="1.8" fill="#b8a088" opacity="1"></circle><circle id="33" cx="226.6" cy="266.2" r="1.8" fill="#b8a088" opacity="1"></circle><circle id="34" cx="237.1" cy="266.5" r="1.8" fill="#b8a088" opacity="1"></circle><circle id="35" cx="247.5" cy="267.3" r="1.8" fill="#b8a088" opacity="1"></circle><circle id="36" cx="257.9" cy="268.2" r="1.8" fill="#b8a088" opacity="1"></circle><circle id="37" cx="268.3" cy="271.5" r="1.8" fill="#b8a088" opacity="1"></circle><circle id="38" cx="278.7" cy="268.1" r="1.8" fill="#b8a088" opacity="1"></circle><circle id="39" cx="289.1" cy="261.8" r="1.8" fill="#b8a088" opacity="1"></circle><circle id="40" cx="299.5" cy="279.9" r="1.8" fill="#b8a088" opacity="1"></circle><circle id="41" cx="310" cy="274.7" r="1.8" fill="#b8a088" opacity="1"></circle><circle id="42" cx="320.4" cy="291.5" r="1.8" fill="#b8a088" opacity="1"></circle><circle id="43" cx="330.8" cy="296.6" r="1.8" fill="#b8a088" opacity="1"></circle><circle id="44" cx="341.2" cy="297.8" r="1.8" fill="#b8a088" opacity="1"></circle><circle id="45" cx="351.6" cy="302.4" r="1.8" fill="#b8a088" opacity="1"></circle><circle id="46" cx="362" cy="321.1" r="1.8" fill="#b8a088" opacity="1"></circle><circle id="47" cx="372.4" cy="329.8" r="1.8" fill="#b8a088" opacity="1"></circle><circle id="48" cx="382.8" cy="341.7" r="1.8" fill="#b8a088" opacity="1"></circle><circle id="49" cx="393.3" cy="351.1" r="1.8" fill="#b8a088" opacity="1"></circle><circle id="50" cx="403.7" cy="358" r="1.8" fill="#b8a088" opacity="1"></circle><circle id="51" cx="414.1" cy="365.2" r="1.8" fill="#b8a088" opacity="1"></circle><circle id="52" cx="424.5" cy="378.6" r="1.8" fill="#b8a088" opacity="1"></circle><circle id="53" cx="434.9" cy="380.7" r="1.8" fill="#b8a088" opacity="1"></circle><circle id="54" cx="445.3" cy="390.9" r="1.8" fill="#b8a088" opacity="1"></circle><circle id="55" cx="455.7" cy="391.8" r="1.8" fill="#b8a088" opacity="1"></circle><circle id="56" cx="466.2" cy="399" r="1.8" fill="#b8a088" opacity="1"></circle><circle id="57" cx="476.6" cy="400.4" r="1.8" fill="#b8a088" opacity="1"></circle><circle id="58" cx="487" cy="408.1" r="1.8" fill="#b8a088" opacity="1"></circle><circle id="59" cx="497.4" cy="406" r="1.8" fill="#b8a088" opacity="1"></circle><circle id="60" cx="507.8" cy="410.2" r="1.8" fill="#b8a088" opacity="1"></circle><circle id="61" cx="518.2" cy="407.2" r="1.8" fill="#b8a088" opacity="1"></circle><circle id="62" cx="528.6" cy="412.6" r="1.8" fill="#b8a088" opacity="1"></circle><circle id="63" cx="539" cy="414.8" r="1.8" fill="#b8a088" opacity="1"></circle><circle id="64" cx="549.5" cy="416.1" r="1.8" fill="#b8a088" opacity="1"></circle><circle id="65" cx="559.9" cy="416.2" r="1.8" fill="#b8a088" opacity="1"></circle><circle id="66" cx="570.3" cy="415" r="1.8" fill="#b8a088" opacity="1"></circle><circle id="67" cx="580.7" cy="415.8" r="1.8" fill="#b8a088" opacity="1"></circle><circle id="68" cx="591.1" cy="416.9" r="1.8" fill="#b8a088" opacity="1"></circle><circle id="69" cx="601.5" cy="410.8" r="1.8" fill="#b8a088" opacity="1"></circle><circle id="70" cx="611.9" cy="418.2" r="1.8" fill="#b8a088" opacity="1"></circle><circle id="71" cx="622.4" cy="414.7" r="1.8" fill="#b8a088" opacity="1"></circle><circle id="72" cx="632.8" cy="424.3" r="1.8" fill="#b8a088" opacity="1"></circle><circle id="73" cx="643.2" cy="417.5" r="1.8" fill="#b8a088" opacity="1"></circle><circle id="74" cx="653.6" cy="421.5" r="1.8" fill="#b8a088" opacity="1"></circle><circle id="75" cx="664" cy="419.2" r="1.8" fill="#b8a088" opacity="1"></circle><circle id="76" cx="674.4" cy="425.1" r="1.8" fill="#b8a088" opacity="1"></circle><circle id="77" cx="684.8" cy="424.9" r="1.8" fill="#b8a088" opacity="1"></circle><circle id="78" cx="695.3" cy="425.2" r="1.8" fill="#b8a088" opacity="1"></circle><circle id="79" cx="705.7" cy="430.4" r="1.8" fill="#b8a088" opacity="1"></circle><circle id="80" cx="716.1" cy="425.1" r="1.8" fill="#b8a088" opacity="1"></circle></g><path fill="none" stroke-linecap="butt" stroke-linejoin="round" stroke="#ffffff" id="outline__With-friends" stroke-width="2.5" d="M 39.2 386.1 C 43.4 387.0, 45.4 393.9, 49.6 388.4 C 53.8 382.9, 55.8 378.3, 60.0 374.6 C 64.2 370.9, 66.2 361.9, 70.4 365.3 C 74.6 368.7, 76.7 373.3, 80.9 373.9 C 85.1 374.5, 87.1 375.8, 91.3 375.3 C 95.5 374.8, 97.5 367.2, 101.7 374.0 C 105.9 380.8, 107.9 392.2, 112.1 390.9 C 116.3 389.6, 118.3 386.1, 122.5 387.7 C 126.7 389.3, 128.7 385.2, 132.9 391.6 C 137.1 398.0, 139.1 408.6, 143.3 407.5 C 147.5 406.4, 149.5 403.1, 153.7 404.7 C 157.9 406.3, 160.0 406.6, 164.2 408.7 C 168.4 410.8, 170.4 412.5, 174.6 413.9 C 178.8 415.3, 180.8 415.4, 185.0 417.5 C 189.2 419.6, 191.2 422.7, 195.4 422.8 C 199.6 422.9, 201.6 421.9, 205.8 423.0 C 210.0 424.1, 212.0 426.3, 216.2 425.7 C 220.4 425.1, 222.4 421.6, 226.6 424.2 C 230.8 426.8, 232.9 430.9, 237.1 430.8 C 241.3 430.7, 243.3 430.5, 247.5 430.5 C 251.7 430.5, 253.7 431.6, 257.9 430.6 C 262.1 429.6, 264.1 427.2, 268.3 428.2 C 272.5 429.2, 274.5 428.7, 278.7 430.7 C 282.9 432.7, 284.9 436.3, 289.1 435.8 C 293.3 435.3, 295.3 435.1, 299.5 434.6 C 303.7 434.1, 305.8 434.3, 310.0 433.3 C 314.2 432.3, 316.2 431.0, 320.4 430.8 C 324.6 430.6, 326.6 429.3, 330.8 430.2 C 335.0 431.1, 337.0 432.1, 341.2 432.5 C 345.4 432.9, 347.4 433.6, 351.6 433.4 C 355.8 433.2, 357.8 433.0, 362.0 432.8 C 366.2 432.6, 368.2 430.6, 372.4 432.4 C 376.6 434.2, 378.6 438.9, 382.8 437.0 C 387.0 435.1, 389.1 429.9, 393.3 432.3 C 397.5 434.7, 399.5 440.4, 403.7 438.4 C 407.9 436.4, 409.9 432.6, 414.1 433.5 C 418.3 434.4, 420.3 435.4, 424.5 435.7 C 428.7 436.0, 430.7 437.2, 434.9 436.4 C 439.1 435.6, 441.1 434.1, 445.3 434.3 C 449.5 434.5, 451.5 435.7, 455.7 434.7 C 459.9 433.7, 462.0 430.4, 466.2 432.2 C 470.4 434.0, 472.4 438.0, 476.6 436.7 C 480.8 435.4, 482.8 431.4, 487.0 433.4 C 491.2 435.4, 493.2 440.5, 497.4 438.4 C 501.6 436.3, 503.6 431.6, 507.8 433.1 C 512.0 434.6, 514.0 437.1, 518.2 436.9 C 522.4 436.7, 524.4 437.0, 528.6 436.4 C 532.8 435.8, 534.8 435.0, 539.0 434.8 C 543.2 434.6, 545.3 434.2, 549.5 434.3 C 553.7 434.4, 555.7 435.6, 559.9 434.6 C 564.1 433.6, 566.1 431.9, 570.3 432.1 C 574.5 432.3, 576.5 433.6, 580.7 432.6 C 584.9 431.6, 586.9 429.6, 591.1 430.0 C 595.3 430.4, 597.3 432.5, 601.5 431.1 C 605.7 429.7, 607.7 426.4, 611.9 427.5 C 616.1 428.6, 618.2 430.3, 622.4 430.3 C 626.6 430.3, 628.6 428.6, 632.8 430.4 C 637.0 432.2, 639.0 435.2, 643.2 434.8 C 647.4 434.4, 649.4 434.6, 653.6 433.8 C 657.8 433.0, 659.8 431.3, 664.0 431.7 C 668.2 432.1, 670.2 431.7, 674.4 432.8 C 678.6 433.9, 680.6 437.3, 684.8 435.6 C 689.0 433.9, 691.1 431.9, 695.3 431.3 C 699.5 430.7, 701.5 428.0, 705.7 429.7 L 716.1 433.9 "></path><path fill="none" stroke-linecap="butt" stroke-linejoin="round" stroke="#b89a9a" id="line__With-friends" stroke-width="1.5" stroke-opacity="1" d="M 39.2 386.1 C 43.4 387.0, 45.4 393.9, 49.6 388.4 C 53.8 382.9, 55.8 378.3, 60.0 374.6 C 64.2 370.9, 66.2 361.9, 70.4 365.3 C 74.6 368.7, 76.7 373.3, 80.9 373.9 C 85.1 374.5, 87.1 375.8, 91.3 375.3 C 95.5 374.8, 97.5 367.2, 101.7 374.0 C 105.9 380.8, 107.9 392.2, 112.1 390.9 C 116.3 389.6, 118.3 386.1, 122.5 387.7 C 126.7 389.3, 128.7 385.2, 132.9 391.6 C 137.1 398.0, 139.1 408.6, 143.3 407.5 C 147.5 406.4, 149.5 403.1, 153.7 404.7 C 157.9 406.3, 160.0 406.6, 164.2 408.7 C 168.4 410.8, 170.4 412.5, 174.6 413.9 C 178.8 415.3, 180.8 415.4, 185.0 417.5 C 189.2 419.6, 191.2 422.7, 195.4 422.8 C 199.6 422.9, 201.6 421.9, 205.8 423.0 C 210.0 424.1, 212.0 426.3, 216.2 425.7 C 220.4 425.1, 222.4 421.6, 226.6 424.2 C 230.8 426.8, 232.9 430.9, 237.1 430.8 C 241.3 430.7, 243.3 430.5, 247.5 430.5 C 251.7 430.5, 253.7 431.6, 257.9 430.6 C 262.1 429.6, 264.1 427.2, 268.3 428.2 C 272.5 429.2, 274.5 428.7, 278.7 430.7 C 282.9 432.7, 284.9 436.3, 289.1 435.8 C 293.3 435.3, 295.3 435.1, 299.5 434.6 C 303.7 434.1, 305.8 434.3, 310.0 433.3 C 314.2 432.3, 316.2 431.0, 320.4 430.8 C 324.6 430.6, 326.6 429.3, 330.8 430.2 C 335.0 431.1, 337.0 432.1, 341.2 432.5 C 345.4 432.9, 347.4 433.6, 351.6 433.4 C 355.8 433.2, 357.8 433.0, 362.0 432.8 C 366.2 432.6, 368.2 430.6, 372.4 432.4 C 376.6 434.2, 378.6 438.9, 382.8 437.0 C 387.0 435.1, 389.1 429.9, 393.3 432.3 C 397.5 434.7, 399.5 440.4, 403.7 438.4 C 407.9 436.4, 409.9 432.6, 414.1 433.5 C 418.3 434.4, 420.3 435.4, 424.5 435.7 C 428.7 436.0, 430.7 437.2, 434.9 436.4 C 439.1 435.6, 441.1 434.1, 445.3 434.3 C 449.5 434.5, 451.5 435.7, 455.7 434.7 C 459.9 433.7, 462.0 430.4, 466.2 432.2 C 470.4 434.0, 472.4 438.0, 476.6 436.7 C 480.8 435.4, 482.8 431.4, 487.0 433.4 C 491.2 435.4, 493.2 440.5, 497.4 438.4 C 501.6 436.3, 503.6 431.6, 507.8 433.1 C 512.0 434.6, 514.0 437.1, 518.2 436.9 C 522.4 436.7, 524.4 437.0, 528.6 436.4 C 532.8 435.8, 534.8 435.0, 539.0 434.8 C 543.2 434.6, 545.3 434.2, 549.5 434.3 C 553.7 434.4, 555.7 435.6, 559.9 434.6 C 564.1 433.6, 566.1 431.9, 570.3 432.1 C 574.5 432.3, 576.5 433.6, 580.7 432.6 C 584.9 431.6, 586.9 429.6, 591.1 430.0 C 595.3 430.4, 597.3 432.5, 601.5 431.1 C 605.7 429.7, 607.7 426.4, 611.9 427.5 C 616.1 428.6, 618.2 430.3, 622.4 430.3 C 626.6 430.3, 628.6 428.6, 632.8 430.4 C 637.0 432.2, 639.0 435.2, 643.2 434.8 C 647.4 434.4, 649.4 434.6, 653.6 433.8 C 657.8 433.0, 659.8 431.3, 664.0 431.7 C 668.2 432.1, 670.2 431.7, 674.4 432.8 C 678.6 433.9, 680.6 437.3, 684.8 435.6 C 689.0 433.9, 691.1 431.9, 695.3 431.3 C 699.5 430.7, 701.5 428.0, 705.7 429.7 L 716.1 433.9 "></path><g id="datapoints__With-friends"><circle id="15" cx="39.2" cy="386.1" r="1.8" fill="#b89a9a" opacity="1"></circle><circle id="16" cx="49.6" cy="388.4" r="1.8" fill="#b89a9a" opacity="1"></circle><circle id="17" cx="60" cy="374.6" r="1.8" fill="#b89a9a" opacity="1"></circle><circle id="18" cx="70.4" cy="365.3" r="1.8" fill="#b89a9a" opacity="1"></circle><circle id="19" cx="80.9" cy="373.9" r="1.8" fill="#b89a9a" opacity="1"></circle><circle id="20" cx="91.3" cy="375.3" r="1.8" fill="#b89a9a" opacity="1"></circle><circle id="21" cx="101.7" cy="374" r="1.8" fill="#b89a9a" opacity="1"></circle><circle id="22" cx="112.1" cy="390.9" r="1.8" fill="#b89a9a" opacity="1"></circle><circle id="23" cx="122.5" cy="387.7" r="1.8" fill="#b89a9a" opacity="1"></circle><circle id="24" cx="132.9" cy="391.6" r="1.8" fill="#b89a9a" opacity="1"></circle><circle id="25" cx="143.3" cy="407.5" r="1.8" fill="#b89a9a" opacity="1"></circle><circle id="26" cx="153.7" cy="404.7" r="1.8" fill="#b89a9a" opacity="1"></circle><circle id="27" cx="164.2" cy="408.7" r="1.8" fill="#b89a9a" opacity="1"></circle><circle id="28" cx="174.6" cy="413.9" r="1.8" fill="#b89a9a" opacity="1"></circle><circle id="29" cx="185" cy="417.5" r="1.8" fill="#b89a9a" opacity="1"></circle><circle id="30" cx="195.4" cy="422.8" r="1.8" fill="#b89a9a" opacity="1"></circle><circle id="31" cx="205.8" cy="423" r="1.8" fill="#b89a9a" opacity="1"></circle><circle id="32" cx="216.2" cy="425.7" r="1.8" fill="#b89a9a" opacity="1"></circle><circle id="33" cx="226.6" cy="424.2" r="1.8" fill="#b89a9a" opacity="1"></circle><circle id="34" cx="237.1" cy="430.8" r="1.8" fill="#b89a9a" opacity="1"></circle><circle id="35" cx="247.5" cy="430.5" r="1.8" fill="#b89a9a" opacity="1"></circle><circle id="36" cx="257.9" cy="430.6" r="1.8" fill="#b89a9a" opacity="1"></circle><circle id="37" cx="268.3" cy="428.2" r="1.8" fill="#b89a9a" opacity="1"></circle><circle id="38" cx="278.7" cy="430.7" r="1.8" fill="#b89a9a" opacity="1"></circle><circle id="39" cx="289.1" cy="435.8" r="1.8" fill="#b89a9a" opacity="1"></circle><circle id="40" cx="299.5" cy="434.6" r="1.8" fill="#b89a9a" opacity="1"></circle><circle id="41" cx="310" cy="433.3" r="1.8" fill="#b89a9a" opacity="1"></circle><circle id="42" cx="320.4" cy="430.8" r="1.8" fill="#b89a9a" opacity="1"></circle><circle id="43" cx="330.8" cy="430.2" r="1.8" fill="#b89a9a" opacity="1"></circle><circle id="44" cx="341.2" cy="432.5" r="1.8" fill="#b89a9a" opacity="1"></circle><circle id="45" cx="351.6" cy="433.4" r="1.8" fill="#b89a9a" opacity="1"></circle><circle id="46" cx="362" cy="432.8" r="1.8" fill="#b89a9a" opacity="1"></circle><circle id="47" cx="372.4" cy="432.4" r="1.8" fill="#b89a9a" opacity="1"></circle><circle id="48" cx="382.8" cy="437" r="1.8" fill="#b89a9a" opacity="1"></circle><circle id="49" cx="393.3" cy="432.3" r="1.8" fill="#b89a9a" opacity="1"></circle><circle id="50" cx="403.7" cy="438.4" r="1.8" fill="#b89a9a" opacity="1"></circle><circle id="51" cx="414.1" cy="433.5" r="1.8" fill="#b89a9a" opacity="1"></circle><circle id="52" cx="424.5" cy="435.7" r="1.8" fill="#b89a9a" opacity="1"></circle><circle id="53" cx="434.9" cy="436.4" r="1.8" fill="#b89a9a" opacity="1"></circle><circle id="54" cx="445.3" cy="434.3" r="1.8" fill="#b89a9a" opacity="1"></circle><circle id="55" cx="455.7" cy="434.7" r="1.8" fill="#b89a9a" opacity="1"></circle><circle id="56" cx="466.2" cy="432.2" r="1.8" fill="#b89a9a" opacity="1"></circle><circle id="57" cx="476.6" cy="436.7" r="1.8" fill="#b89a9a" opacity="1"></circle><circle id="58" cx="487" cy="433.4" r="1.8" fill="#b89a9a" opacity="1"></circle><circle id="59" cx="497.4" cy="438.4" r="1.8" fill="#b89a9a" opacity="1"></circle><circle id="60" cx="507.8" cy="433.1" r="1.8" fill="#b89a9a" opacity="1"></circle><circle id="61" cx="518.2" cy="436.9" r="1.8" fill="#b89a9a" opacity="1"></circle><circle id="62" cx="528.6" cy="436.4" r="1.8" fill="#b89a9a" opacity="1"></circle><circle id="63" cx="539" cy="434.8" r="1.8" fill="#b89a9a" opacity="1"></circle><circle id="64" cx="549.5" cy="434.3" r="1.8" fill="#b89a9a" opacity="1"></circle><circle id="65" cx="559.9" cy="434.6" r="1.8" fill="#b89a9a" opacity="1"></circle><circle id="66" cx="570.3" cy="432.1" r="1.8" fill="#b89a9a" opacity="1"></circle><circle id="67" cx="580.7" cy="432.6" r="1.8" fill="#b89a9a" opacity="1"></circle><circle id="68" cx="591.1" cy="430" r="1.8" fill="#b89a9a" opacity="1"></circle><circle id="69" cx="601.5" cy="431.1" r="1.8" fill="#b89a9a" opacity="1"></circle><circle id="70" cx="611.9" cy="427.5" r="1.8" fill="#b89a9a" opacity="1"></circle><circle id="71" cx="622.4" cy="430.3" r="1.8" fill="#b89a9a" opacity="1"></circle><circle id="72" cx="632.8" cy="430.4" r="1.8" fill="#b89a9a" opacity="1"></circle><circle id="73" cx="643.2" cy="434.8" r="1.8" fill="#b89a9a" opacity="1"></circle><circle id="74" cx="653.6" cy="433.8" r="1.8" fill="#b89a9a" opacity="1"></circle><circle id="75" cx="664" cy="431.7" r="1.8" fill="#b89a9a" opacity="1"></circle><circle id="76" cx="674.4" cy="432.8" r="1.8" fill="#b89a9a" opacity="1"></circle><circle id="77" cx="684.8" cy="435.6" r="1.8" fill="#b89a9a" opacity="1"></circle><circle id="78" cx="695.3" cy="431.3" r="1.8" fill="#b89a9a" opacity="1"></circle><circle id="79" cx="705.7" cy="429.7" r="1.8" fill="#b89a9a" opacity="1"></circle><circle id="80" cx="716.1" cy="433.9" r="1.8" fill="#b89a9a" opacity="1"></circle></g><path fill="none" stroke-linecap="butt" stroke-linejoin="round" stroke="#ffffff" id="outline__Alone" stroke-width="2.5" d="M 39.2 293.3 C 43.4 288.9, 45.4 284.7, 49.6 282.3 C 53.8 279.9, 55.8 282.5, 60.0 276.3 C 64.2 270.1, 66.2 274.3, 70.4 260.8 C 74.6 247.3, 76.7 225.9, 80.9 227.0 C 85.1 228.1, 87.1 228.7, 91.3 229.8 C 95.5 230.9, 97.5 238.1, 101.7 232.5 C 105.9 226.9, 107.9 210.0, 112.1 218.4 C 116.3 226.8, 118.3 239.7, 122.5 239.4 C 126.7 239.1, 128.7 242.8, 132.9 238.6 C 137.1 234.4, 139.1 227.5, 143.3 228.0 C 147.5 228.5, 149.5 224.3, 153.7 229.3 C 157.9 234.3, 160.0 241.9, 164.2 241.7 C 168.4 241.5, 170.4 240.8, 174.6 241.2 C 178.8 241.6, 180.8 240.5, 185.0 242.1 C 189.2 243.7, 191.2 246.6, 195.4 246.1 C 199.6 245.6, 201.6 244.4, 205.8 244.8 C 210.0 245.2, 212.0 241.6, 216.2 245.9 C 220.4 250.2, 222.4 260.4, 226.6 256.6 C 230.8 252.8, 232.9 247.8, 237.1 247.1 C 241.3 246.4, 243.3 248.5, 247.5 245.3 C 251.7 242.1, 253.7 235.1, 257.9 237.2 C 262.1 239.3, 264.1 242.7, 268.3 242.4 C 272.5 242.1, 274.5 245.2, 278.7 241.7 C 282.9 238.2, 284.9 235.1, 289.1 233.0 C 293.3 230.9, 295.3 229.5, 299.5 227.8 C 303.7 226.1, 305.8 224.9, 310.0 223.5 C 314.2 222.1, 316.2 225.7, 320.4 219.9 C 324.6 214.1, 326.6 203.9, 330.8 205.3 C 335.0 206.7, 337.0 207.7, 341.2 208.8 C 345.4 209.9, 347.4 218.9, 351.6 211.5 C 355.8 204.1, 357.8 196.3, 362.0 192.9 C 366.2 189.5, 368.2 180.3, 372.4 184.3 C 376.6 188.3, 378.6 196.5, 382.8 194.3 C 387.0 192.1, 389.1 197.5, 393.3 188.7 C 397.5 179.9, 399.5 165.2, 403.7 166.8 C 407.9 168.4, 409.9 174.3, 414.1 170.9 C 418.3 167.5, 420.3 164.0, 424.5 162.5 C 428.7 161.0, 430.7 157.2, 434.9 158.7 C 439.1 160.2, 441.1 165.6, 445.3 162.5 C 449.5 159.4, 451.5 152.9, 455.7 154.7 C 459.9 156.5, 462.0 164.3, 466.2 159.2 C 470.4 154.1, 472.4 149.4, 476.6 146.4 C 480.8 143.4, 482.8 140.1, 487.0 138.9 C 491.2 137.7, 493.2 137.3, 497.4 136.0 C 501.6 134.7, 503.6 129.5, 507.8 132.8 C 512.0 136.1, 514.0 146.7, 518.2 141.0 C 522.4 135.3, 524.4 129.3, 528.6 126.7 C 532.8 124.1, 534.8 122.0, 539.0 120.1 C 543.2 118.2, 545.3 116.7, 549.5 115.4 C 553.7 114.1, 555.7 109.4, 559.9 112.2 C 564.1 115.0, 566.1 119.1, 570.3 119.3 C 574.5 119.5, 576.5 121.6, 580.7 119.8 C 584.9 118.0, 586.9 114.5, 591.1 115.2 C 595.3 115.9, 597.3 118.8, 601.5 117.0 C 605.7 115.2, 607.7 110.8, 611.9 112.4 C 616.1 114.0, 618.2 126.2, 622.4 116.4 C 626.6 106.6, 628.6 87.6, 632.8 92.0 C 637.0 96.4, 639.0 104.0, 643.2 103.1 C 647.4 102.2, 649.4 98.8, 653.6 100.9 C 657.8 103.0, 659.8 104.1, 664.0 106.2 C 668.2 108.3, 670.2 112.4, 674.4 111.5 C 678.6 110.6, 680.6 110.2, 684.8 109.3 C 689.0 108.4, 691.1 110.6, 695.3 107.1 C 699.5 103.6, 701.5 98.9, 705.7 98.3 L 716.1 96.7 "></path><path fill="none" stroke-linecap="butt" stroke-linejoin="round" stroke="#8c867b" id="line__Alone" stroke-width="1.5" stroke-opacity="1" d="M 39.2 293.3 C 43.4 288.9, 45.4 284.7, 49.6 282.3 C 53.8 279.9, 55.8 282.5, 60.0 276.3 C 64.2 270.1, 66.2 274.3, 70.4 260.8 C 74.6 247.3, 76.7 225.9, 80.9 227.0 C 85.1 228.1, 87.1 228.7, 91.3 229.8 C 95.5 230.9, 97.5 238.1, 101.7 232.5 C 105.9 226.9, 107.9 210.0, 112.1 218.4 C 116.3 226.8, 118.3 239.7, 122.5 239.4 C 126.7 239.1, 128.7 242.8, 132.9 238.6 C 137.1 234.4, 139.1 227.5, 143.3 228.0 C 147.5 228.5, 149.5 224.3, 153.7 229.3 C 157.9 234.3, 160.0 241.9, 164.2 241.7 C 168.4 241.5, 170.4 240.8, 174.6 241.2 C 178.8 241.6, 180.8 240.5, 185.0 242.1 C 189.2 243.7, 191.2 246.6, 195.4 246.1 C 199.6 245.6, 201.6 244.4, 205.8 244.8 C 210.0 245.2, 212.0 241.6, 216.2 245.9 C 220.4 250.2, 222.4 260.4, 226.6 256.6 C 230.8 252.8, 232.9 247.8, 237.1 247.1 C 241.3 246.4, 243.3 248.5, 247.5 245.3 C 251.7 242.1, 253.7 235.1, 257.9 237.2 C 262.1 239.3, 264.1 242.7, 268.3 242.4 C 272.5 242.1, 274.5 245.2, 278.7 241.7 C 282.9 238.2, 284.9 235.1, 289.1 233.0 C 293.3 230.9, 295.3 229.5, 299.5 227.8 C 303.7 226.1, 305.8 224.9, 310.0 223.5 C 314.2 222.1, 316.2 225.7, 320.4 219.9 C 324.6 214.1, 326.6 203.9, 330.8 205.3 C 335.0 206.7, 337.0 207.7, 341.2 208.8 C 345.4 209.9, 347.4 218.9, 351.6 211.5 C 355.8 204.1, 357.8 196.3, 362.0 192.9 C 366.2 189.5, 368.2 180.3, 372.4 184.3 C 376.6 188.3, 378.6 196.5, 382.8 194.3 C 387.0 192.1, 389.1 197.5, 393.3 188.7 C 397.5 179.9, 399.5 165.2, 403.7 166.8 C 407.9 168.4, 409.9 174.3, 414.1 170.9 C 418.3 167.5, 420.3 164.0, 424.5 162.5 C 428.7 161.0, 430.7 157.2, 434.9 158.7 C 439.1 160.2, 441.1 165.6, 445.3 162.5 C 449.5 159.4, 451.5 152.9, 455.7 154.7 C 459.9 156.5, 462.0 164.3, 466.2 159.2 C 470.4 154.1, 472.4 149.4, 476.6 146.4 C 480.8 143.4, 482.8 140.1, 487.0 138.9 C 491.2 137.7, 493.2 137.3, 497.4 136.0 C 501.6 134.7, 503.6 129.5, 507.8 132.8 C 512.0 136.1, 514.0 146.7, 518.2 141.0 C 522.4 135.3, 524.4 129.3, 528.6 126.7 C 532.8 124.1, 534.8 122.0, 539.0 120.1 C 543.2 118.2, 545.3 116.7, 549.5 115.4 C 553.7 114.1, 555.7 109.4, 559.9 112.2 C 564.1 115.0, 566.1 119.1, 570.3 119.3 C 574.5 119.5, 576.5 121.6, 580.7 119.8 C 584.9 118.0, 586.9 114.5, 591.1 115.2 C 595.3 115.9, 597.3 118.8, 601.5 117.0 C 605.7 115.2, 607.7 110.8, 611.9 112.4 C 616.1 114.0, 618.2 126.2, 622.4 116.4 C 626.6 106.6, 628.6 87.6, 632.8 92.0 C 637.0 96.4, 639.0 104.0, 643.2 103.1 C 647.4 102.2, 649.4 98.8, 653.6 100.9 C 657.8 103.0, 659.8 104.1, 664.0 106.2 C 668.2 108.3, 670.2 112.4, 674.4 111.5 C 678.6 110.6, 680.6 110.2, 684.8 109.3 C 689.0 108.4, 691.1 110.6, 695.3 107.1 C 699.5 103.6, 701.5 98.9, 705.7 98.3 L 716.1 96.7 "></path><g id="datapoints__Alone"><circle id="15" cx="39.2" cy="293.3" r="1.8" fill="#8c867b" opacity="1"></circle><circle id="16" cx="49.6" cy="282.3" r="1.8" fill="#8c867b" opacity="1"></circle><circle id="17" cx="60" cy="276.3" r="1.8" fill="#8c867b" opacity="1"></circle><circle id="18" cx="70.4" cy="260.8" r="1.8" fill="#8c867b" opacity="1"></circle><circle id="19" cx="80.9" cy="227" r="1.8" fill="#8c867b" opacity="1"></circle><circle id="20" cx="91.3" cy="229.8" r="1.8" fill="#8c867b" opacity="1"></circle><circle id="21" cx="101.7" cy="232.5" r="1.8" fill="#8c867b" opacity="1"></circle><circle id="22" cx="112.1" cy="218.4" r="1.8" fill="#8c867b" opacity="1"></circle><circle id="23" cx="122.5" cy="239.4" r="1.8" fill="#8c867b" opacity="1"></circle><circle id="24" cx="132.9" cy="238.6" r="1.8" fill="#8c867b" opacity="1"></circle><circle id="25" cx="143.3" cy="228" r="1.8" fill="#8c867b" opacity="1"></circle><circle id="26" cx="153.7" cy="229.3" r="1.8" fill="#8c867b" opacity="1"></circle><circle id="27" cx="164.2" cy="241.7" r="1.8" fill="#8c867b" opacity="1"></circle><circle id="28" cx="174.6" cy="241.2" r="1.8" fill="#8c867b" opacity="1"></circle><circle id="29" cx="185" cy="242.1" r="1.8" fill="#8c867b" opacity="1"></circle><circle id="30" cx="195.4" cy="246.1" r="1.8" fill="#8c867b" opacity="1"></circle><circle id="31" cx="205.8" cy="244.8" r="1.8" fill="#8c867b" opacity="1"></circle><circle id="32" cx="216.2" cy="245.9" r="1.8" fill="#8c867b" opacity="1"></circle><circle id="33" cx="226.6" cy="256.6" r="1.8" fill="#8c867b" opacity="1"></circle><circle id="34" cx="237.1" cy="247.1" r="1.8" fill="#8c867b" opacity="1"></circle><circle id="35" cx="247.5" cy="245.3" r="1.8" fill="#8c867b" opacity="1"></circle><circle id="36" cx="257.9" cy="237.2" r="1.8" fill="#8c867b" opacity="1"></circle><circle id="37" cx="268.3" cy="242.4" r="1.8" fill="#8c867b" opacity="1"></circle><circle id="38" cx="278.7" cy="241.7" r="1.8" fill="#8c867b" opacity="1"></circle><circle id="39" cx="289.1" cy="233" r="1.8" fill="#8c867b" opacity="1"></circle><circle id="40" cx="299.5" cy="227.8" r="1.8" fill="#8c867b" opacity="1"></circle><circle id="41" cx="310" cy="223.5" r="1.8" fill="#8c867b" opacity="1"></circle><circle id="42" cx="320.4" cy="219.9" r="1.8" fill="#8c867b" opacity="1"></circle><circle id="43" cx="330.8" cy="205.3" r="1.8" fill="#8c867b" opacity="1"></circle><circle id="44" cx="341.2" cy="208.8" r="1.8" fill="#8c867b" opacity="1"></circle><circle id="45" cx="351.6" cy="211.5" r="1.8" fill="#8c867b" opacity="1"></circle><circle id="46" cx="362" cy="192.9" r="1.8" fill="#8c867b" opacity="1"></circle><circle id="47" cx="372.4" cy="184.3" r="1.8" fill="#8c867b" opacity="1"></circle><circle id="48" cx="382.8" cy="194.3" r="1.8" fill="#8c867b" opacity="1"></circle><circle id="49" cx="393.3" cy="188.7" r="1.8" fill="#8c867b" opacity="1"></circle><circle id="50" cx="403.7" cy="166.8" r="1.8" fill="#8c867b" opacity="1"></circle><circle id="51" cx="414.1" cy="170.9" r="1.8" fill="#8c867b" opacity="1"></circle><circle id="52" cx="424.5" cy="162.5" r="1.8" fill="#8c867b" opacity="1"></circle><circle id="53" cx="434.9" cy="158.7" r="1.8" fill="#8c867b" opacity="1"></circle><circle id="54" cx="445.3" cy="162.5" r="1.8" fill="#8c867b" opacity="1"></circle><circle id="55" cx="455.7" cy="154.7" r="1.8" fill="#8c867b" opacity="1"></circle><circle id="56" cx="466.2" cy="159.2" r="1.8" fill="#8c867b" opacity="1"></circle><circle id="57" cx="476.6" cy="146.4" r="1.8" fill="#8c867b" opacity="1"></circle><circle id="58" cx="487" cy="138.9" r="1.8" fill="#8c867b" opacity="1"></circle><circle id="59" cx="497.4" cy="136" r="1.8" fill="#8c867b" opacity="1"></circle><circle id="60" cx="507.8" cy="132.8" r="1.8" fill="#8c867b" opacity="1"></circle><circle id="61" cx="518.2" cy="141" r="1.8" fill="#8c867b" opacity="1"></circle><circle id="62" cx="528.6" cy="126.7" r="1.8" fill="#8c867b" opacity="1"></circle><circle id="63" cx="539" cy="120.1" r="1.8" fill="#8c867b" opacity="1"></circle><circle id="64" cx="549.5" cy="115.4" r="1.8" fill="#8c867b" opacity="1"></circle><circle id="65" cx="559.9" cy="112.2" r="1.8" fill="#8c867b" opacity="1"></circle><circle id="66" cx="570.3" cy="119.3" r="1.8" fill="#8c867b" opacity="1"></circle><circle id="67" cx="580.7" cy="119.8" r="1.8" fill="#8c867b" opacity="1"></circle><circle id="68" cx="591.1" cy="115.2" r="1.8" fill="#8c867b" opacity="1"></circle><circle id="69" cx="601.5" cy="117" r="1.8" fill="#8c867b" opacity="1"></circle><circle id="70" cx="611.9" cy="112.4" r="1.8" fill="#8c867b" opacity="1"></circle><circle id="71" cx="622.4" cy="116.4" r="1.8" fill="#8c867b" opacity="1"></circle><circle id="72" cx="632.8" cy="92" r="1.8" fill="#8c867b" opacity="1"></circle><circle id="73" cx="643.2" cy="103.1" r="1.8" fill="#8c867b" opacity="1"></circle><circle id="74" cx="653.6" cy="100.9" r="1.8" fill="#8c867b" opacity="1"></circle><circle id="75" cx="664" cy="106.2" r="1.8" fill="#8c867b" opacity="1"></circle><circle id="76" cx="674.4" cy="111.5" r="1.8" fill="#8c867b" opacity="1"></circle><circle id="77" cx="684.8" cy="109.3" r="1.8" fill="#8c867b" opacity="1"></circle><circle id="78" cx="695.3" cy="107.1" r="1.8" fill="#8c867b" opacity="1"></circle><circle id="79" cx="705.7" cy="98.3" r="1.8" fill="#8c867b" opacity="1"></circle><circle id="80" cx="716.1" cy="96.7" r="1.8" fill="#8c867b" opacity="1"></circle></g></g></g><g id="footer" class="SourcesFooter" style="fill: #9A948C;"><g id="sources" class="markdown-text-wrap"><text x="16.0" y="529.7" style="font-size: 13px; line-height: 1.2;"><tspan x="16" y="529.7"><tspan style="font-weight: 700;">Data source:</tspan> U.S. Bureau of Labor Statistics (2023)</tspan></text></g><g id="note" class="markdown-text-wrap"><text x="16.0" y="549.8" style="font-size: 13px; line-height: 1.2;"><tspan x="16" y="549.8"><tspan style="font-weight: 700;">Note:</tspan> Activities such as sleeping, grooming, and personal care are not included in the data. Relationships used to categorize people are not</tspan><tspan x="16" y="565.4">exhaustive and time spent with multiple people counts toward all (e.g., attending a party with friends and partner counts toward both "friends"</tspan><tspan x="16" y="581.0">and "partner").</tspan></text></g><text id="origin-url" font-size="13.00" x="614.2" y="529.7"><tspan x="614.17" y="529.71"><a style="fill: #9A948C;" href="https://ourworldindata.org/time-use">OurWorldinData.org/time-use</a> | <a style="fill: #9A948C;" href="https://creativecommons.org/licenses/by/4.0/">CC BY</a></tspan></text></g></svg>